<?xml version="1.0" standalone="no"?>
<!DOCTYPE svg PUBLIC "-//W3C//DTD SVG 20010904//EN"
 "http://www.w3.org/TR/2001/REC-SVG-20010904/DTD/svg10.dtd">
<svg version="1.0" xmlns="http://www.w3.org/2000/svg"
 width="1080.000000pt" height="338.000000pt" viewBox="0 0 1080.000000 338.000000"
 preserveAspectRatio="xMidYMid meet">

<g transform="translate(0.000000,338.000000) scale(0.100000,-0.100000)"
fill="#000000" stroke="none">
<path d="M1199 2260 c-42 -12 -77 -40 -101 -79 -23 -36 -23 -38 -26 -498 l-3
-463 161 0 160 0 0 300 c0 165 3 300 8 300 4 0 181 -130 394 -290 213 -159
402 -297 420 -306 21 -11 56 -18 94 -18 85 0 149 33 181 93 23 44 23 45 23
448 0 433 2 452 51 487 22 15 11 16 -174 16 l-197 0 0 -309 0 -310 -387 297
c-214 163 -408 307 -432 319 -46 24 -119 29 -172 13z"/>
<path d="M3385 2246 c-61 -29 -79 -48 -190 -206 -49 -69 -198 -279 -332 -468
-134 -188 -243 -344 -243 -347 0 -3 83 -5 185 -5 l184 0 39 53 c21 28 130 181
241 340 112 158 206 287 210 286 7 0 272 -388 279 -407 3 -9 -49 -12 -216 -12
l-220 0 -92 -126 c-51 -69 -90 -127 -88 -130 3 -2 271 -3 597 -2 l591 3 -321
465 c-176 256 -342 486 -368 512 -74 72 -164 87 -256 44z"/>
<path d="M6875 2259 c-300 -36 -474 -157 -530 -370 -19 -71 -19 -230 0 -304
46 -176 177 -291 391 -345 181 -45 515 -44 692 1 281 71 406 227 405 504 0 92
-4 122 -25 183 -84 236 -320 344 -743 341 -66 -1 -151 -5 -190 -10z m113 -270
c21 -9 32 -20 32 -34 0 -14 3 -16 8 -7 9 14 42 6 42 -10 0 -6 6 -8 14 -5 8 3
24 -4 37 -16 13 -12 28 -22 34 -23 20 -2 50 -18 74 -40 13 -13 36 -26 50 -29
14 -4 41 -18 59 -32 26 -19 33 -31 29 -49 -2 -13 0 -24 5 -24 5 0 1 -11 -9
-24 -10 -13 -22 -21 -27 -18 -5 3 -16 -4 -24 -14 -14 -18 -14 -18 -8 3 7 23
-8 40 -20 22 -4 -8 -3 -9 4 -5 19 12 14 -10 -9 -35 -11 -13 -18 -18 -14 -11 4
7 0 12 -10 12 -9 0 -13 -4 -10 -10 3 -5 2 -10 -4 -10 -5 0 -24 -12 -41 -27
-19 -16 -31 -21 -30 -12 1 8 2 21 1 29 -1 12 -4 12 -12 -3 -5 -9 -8 -21 -5
-26 3 -5 -6 -16 -20 -26 -20 -13 -28 -14 -40 -4 -8 6 -17 9 -21 5 -3 -3 -1 -6
5 -6 7 0 12 -5 12 -11 0 -6 -7 -9 -15 -5 -8 3 -15 1 -15 -5 0 -6 -5 -7 -10 -4
-6 4 -9 1 -8 -6 2 -8 -19 -26 -47 -40 -56 -31 -111 -38 -102 -15 4 10 1 13 -8
10 -7 -3 -18 4 -24 15 -14 26 -15 457 -1 466 6 4 8 11 5 16 -5 8 0 10 20 9 3
-1 12 6 21 14 9 10 21 12 32 7 9 -4 32 -14 50 -22z"/>
<path d="M7090 1921 c0 -6 4 -13 10 -16 6 -3 7 1 4 9 -7 18 -14 21 -14 7z"/>
<path d="M7053 1875 c0 -8 4 -15 9 -15 4 0 8 4 8 9 0 6 -4 12 -8 15 -5 3 -9
-1 -9 -9z"/>
<path d="M7138 1873 c7 -3 16 -2 19 1 4 3 -2 6 -13 5 -11 0 -14 -3 -6 -6z"/>
<path d="M7170 1866 c0 -2 7 -6 15 -10 8 -3 15 -1 15 4 0 6 -7 10 -15 10 -8 0
-15 -2 -15 -4z"/>
<path d="M7223 1835 c0 -8 4 -12 9 -9 5 3 6 10 3 15 -9 13 -12 11 -12 -6z"/>
<path d="M7270 1810 c0 -6 7 -10 15 -10 8 0 15 2 15 4 0 2 -7 6 -15 10 -8 3
-15 1 -15 -4z"/>
<path d="M7228 1683 c6 -2 18 -2 25 0 6 3 1 5 -13 5 -14 0 -19 -2 -12 -5z"/>
<path d="M6928 1493 c-10 -2 -18 -9 -18 -14 0 -6 10 -5 23 2 37 20 36 23 -5
12z"/>
<path d="M8292 2249 c-24 -12 -54 -38 -67 -58 -12 -20 -57 -153 -99 -296 -174
-597 -180 -613 -249 -655 l-32 -20 197 0 196 0 11 33 c19 61 140 522 147 560
3 20 9 37 13 37 3 0 77 -142 164 -315 l157 -315 148 0 147 0 158 323 158 322
44 -170 c23 -93 62 -239 85 -322 l43 -153 158 0 c122 0 157 3 154 12 -2 7 -61
211 -130 453 -69 242 -133 457 -142 477 -41 95 -153 134 -250 87 -23 -11 -52
-34 -63 -50 -12 -15 -97 -180 -189 -366 l-168 -338 -168 335 c-92 184 -178
350 -192 369 -51 67 -152 89 -231 50z"/>
<path d="M4500 1735 l0 -515 160 0 160 0 0 515 0 515 -160 0 -160 0 0 -515z"/>
<path d="M5476 2233 c-253 -54 -417 -217 -441 -438 -13 -117 30 -260 107 -356
41 -50 138 -125 198 -152 132 -58 155 -61 578 -65 215 -2 392 0 392 3 0 4 -18
28 -40 53 -23 25 -59 83 -81 128 l-41 81 -231 -5 c-320 -6 -419 11 -495 87
-51 51 -66 88 -67 161 0 109 56 189 164 232 52 21 75 22 349 26 235 3 292 6
292 17 0 24 70 149 111 198 l40 47 -383 -1 c-299 0 -398 -4 -452 -16z"/>
</g>
</svg>
