<?xml version="1.0" encoding="UTF-8"?>
<svg id="Layer_2" data-name="Layer 2" xmlns="http://www.w3.org/2000/svg" viewBox="0 0 32.38 24.56">
  <defs>
    <style>
      .cls-1 {
        fill: #0097ff;
        stroke-width: 0px;
      }
    </style>
  </defs>
  <g id="svg5">
    <path id="path15777-1" class="cls-1" d="M25.24,15.62c-.06-.07-.13-.14-.19-.21-.57-.61-1.19-1.25-1.85-1.88-.66-.64-1.37-1.26-2.1-1.88-.74-.61-1.51-1.22-2.31-1.77-.15-.11-.3-.21-.45-.31.44-.32.88-.64,1.33-.94.36-.24.72-.49,1.08-.71.36-.24.73-.46,1.1-.68.73-.44,1.47-.85,2.19-1.22.49-.25.97-.49,1.44-.7.03.04.05.08.07.12,1.98,3.25,1.73,7.25-.3,10.2M22.4,18.3c-2.14,1.3-4.66,1.69-7.09,1.1-1.22-.3-2.34-.82-3.32-1.54-.52-.38-1-.81-1.43-1.29.46-.51,1.08-1.17,1.82-1.9.91-.9,2.01-1.93,3.24-2.97.32-.27.65-.54.99-.81.26.23.52.47.77.71.67.62,1.29,1.29,1.89,1.95.6.67,1.16,1.35,1.68,2.02.53.67,1.01,1.34,1.45,1.98.12.18.24.35.35.52-.12.08-.25.16-.37.24M9.7,11.4c-.47.33-.91.64-1.31.93-.44-1.98-.22-4.04.59-5.86.64.19,1.31.42,1.99.72.72.31,1.46.7,2.19,1.13.24.14.47.29.7.45-.07.04-.13.07-.2.11-1.49.86-2.84,1.73-3.97,2.52M12.67,2.28c1.72-1.04,3.68-1.5,5.64-1.33.48.04.97.12,1.44.24,1.93.47,3.63,1.52,4.89,3-.4.11-.8.23-1.22.35-.81.25-1.65.53-2.48.85-.42.16-.84.32-1.26.5-.42.17-.84.35-1.25.54-.83.37-1.65.77-2.45,1.18-.17.09-.33.17-.5.26-.15-.08-.29-.15-.43-.23-.43-.19-.85-.4-1.27-.57-.85-.35-1.68-.64-2.49-.85-.69-.19-1.37-.32-2-.42.76-1.41,1.9-2.64,3.36-3.53M28.13,4.23c.62-.23,1.2-.4,1.71-.55.52-.14.97-.26,1.35-.35.76-.16,1.19-.25,1.19-.25,0,0-.44.01-1.22.04-.39.03-.86.06-1.41.11-.54.07-1.15.13-1.82.25-.33.05-.68.11-1.03.19-.36.08-.73.14-1.1.24-.05.01-.11.03-.17.04-1.41-1.81-3.38-3.09-5.65-3.64-2.67-.65-5.43-.23-7.78,1.2-1.72,1.05-3.03,2.52-3.86,4.21-.12-.01-.24-.02-.35-.03-.33,0-.64-.02-.93-.02-.29-.02-.56.01-.81.03-.25.01-.48.03-.69.04-.82.12-1.29.19-1.29.19,0,0,.47,0,1.29,0,.21.02.43.04.68.06.24.02.51.03.79.09.28.05.57.1.89.15.06.01.12.03.17.04-.89,2.08-1.09,4.44-.49,6.68-.22.17-.42.32-.6.47-.32.26-.57.46-.75.61-.18.16-.28.24-.28.24h-.02c-.11.11-.21.21-.3.33-.46.56-.63,1.26-.53,1.93-.04.03-.07.06-.1.09C1.92,19.29.07,21.31.07,21.31h0c-.09.11-.08.26.02.36.1.09.26.08.35-.02,0,0,.45-.5,1.28-1.35.82-.83,2.02-1.99,3.5-3.33.1.29.25.57.46.81-.95.94-1.72,1.77-2.29,2.41-.77.86-1.19,1.39-1.19,1.39h0s0,0,0,0c-.08.11-.06.27.05.35.11.08.27.06.35-.05,0,0,.4-.51,1.16-1.38.56-.64,1.32-1.47,2.25-2.42,0,0,.01.01.02.02.24.19.5.34.78.43-1.74,1.91-2.72,3.21-2.72,3.21h0c-.08.12-.06.27.05.36.11.08.27.06.35-.05,0,0,.37-.5,1.06-1.35.45-.55,1.04-1.25,1.76-2.04.83.1,1.69-.22,2.25-.91,0,0,.06-.07.17-.21.06-.07.14-.17.23-.28,1.36,1.49,3.13,2.54,5.14,3.03.53.13,1.06.21,1.59.26,2.16.18,4.31-.32,6.19-1.46.14-.08.27-.17.4-.26h0c.12.19.24.38.35.56.72,1.16,1.27,2.15,1.63,2.84.18.34.32.62.41.8.08.18.12.27.12.27v.02c.05.09.11.18.17.27.68,1.01,2.05,1.29,3.06.61,1.01-.67,1.29-2.05.62-3.06,0,0-.07-.11-.21-.32-.14-.2-.33-.48-.59-.84-.51-.7-1.26-1.68-2.2-2.8-.24-.28-.49-.57-.75-.87,2.35-3.25,2.67-7.73.46-11.37,0,0,0-.01,0-.02.29-.13.57-.23.85-.35.33-.14.65-.25.96-.36"/>
  </g>
</svg>