<?xml version="1.0" encoding="UTF-8"?>
<svg id="Layer_2" data-name="Layer 2" xmlns="http://www.w3.org/2000/svg" xmlns:xlink="http://www.w3.org/1999/xlink" viewBox="0 0 187.99 57.08">
  <defs>
    <style>
      .cls-1 {
        stroke: #29d8d4;
        stroke-linecap: square;
        stroke-linejoin: bevel;
        stroke-width: .33px;
      }

      .cls-1, .cls-2, .cls-3 {
        fill: none;
      }

      .cls-4 {
        letter-spacing: -.03em;
      }

      .cls-2 {
        stroke: url(#Degradado_sin_nombre_9);
        stroke-linecap: round;
        stroke-linejoin: round;
        stroke-width: .33px;
      }

      .cls-5, .cls-6 {
        isolation: isolate;
      }

      .cls-7 {
        letter-spacing: -.06em;
      }

      .cls-3, .cls-8 {
        stroke-width: 0px;
      }

      .cls-9 {
        letter-spacing: -.03em;
      }

      .cls-6 {
        font-family: Gotham-Book, Gotham;
        font-size: 11.23px;
      }

      .cls-6, .cls-8 {
        fill: #fff;
      }

      .cls-10 {
        clip-path: url(#clippath);
      }

      .cls-11 {
        letter-spacing: -.04em;
      }
    </style>
    <linearGradient id="Degradado_sin_nombre_9" data-name="Degradado sin nombre 9" x1="-1561.04" y1="1905.13" x2="-1525.74" y2="1905.13" gradientTransform="translate(2502.03 3028.82) scale(1.56 -1.56)" gradientUnits="userSpaceOnUse">
      <stop offset="0" stop-color="#29d8d4"/>
      <stop offset="1" stop-color="#fff"/>
    </linearGradient>
    <clipPath id="clippath">
      <polygon class="cls-3" points="78.98 47.26 84.01 47.26 81.37 55.59 79.19 54.8 78.98 47.26"/>
    </clipPath>
  </defs>
  <g id="svg5">
    <g>
      <g id="g5954">
        <path id="path5946" class="cls-8" d="M99.9,18.08l-2.82,21.66h3.07c6.2.07,8.2,0,9.26-7.62l.96-7.45c.78-1.01,1.78-1.21,2.49-1.21,1.37,0,.56,3.72.41,5.16l-.21,1.51h11.33s3.45-12.06-3.55-12.06-10.1,3.77-10.1,3.77l.5-3.77h-11.33Z"/>
        <path id="path5948" class="cls-8" d="M53.57,5.94c-9.69,0-11.19.59-12.23,6.79l-3.52,27.01c.46,0,1.84,0,2.27,0,5.21.04,7.76.07,9.59-3.36,0,0,3.49,3.35,8.6,3.35s8.11-3.97,9.09-8.02c1.15,6.43,7.41,8.04,14.28,8.04,9.23,0,13.5-1.43,14.48-6.83h-11.34c-.61,2.72-2.5,3.8-3.75,3.8-1.69,0-2.04-1.91-2.16-3.17-.1-1.06-.07-1.94.06-3.4h17.52c1.26-9.33-4.82-11.95-13.07-12.04-8.45,0-13.43,2.54-15.1,6.65l-.02-.22c-.36-3.82-2.47-6.45-7.54-6.45-5.59,0-9.07,3.23-9.07,3.23l1.89-15.39ZM83.57,20.98c.98,0,1.91.6,2.11,2.67.14,1.51-.14,3.67-.14,3.67h-6.21c.61-3.32,1.96-6.34,4.24-6.34ZM54.8,22.59c1.25,0,1.73,1.01,1.85,2.32.22,2.31-.59,10.36-4.02,10.36-1.14,0-2.01-.91-2.58-1.71l1.26-9.39c.48-.65,2.07-1.57,3.48-1.57h0Z"/>
        <path id="path5950" class="cls-8" d="M33.52,8.3c-2.38.05-4.36,1.37-4.86,3.24-.63,2.33,1.2,4.71,4.1,5.33,2.9.61,5.52-.77,6.15-3.1.63-2.33-.97-4.71-3.86-5.33-.5-.11-1.01-.16-1.53-.14h0ZM38.27,18.11c-8.52,0-11.21.11-12.22,6.12l-2.01,15.51h11.41l2.82-21.63Z"/>
        <path id="path5952" class="cls-8" d="M5.25,5.94L.77,39.74h11.36l1.97-14.76h6.71c3.34,0,4-2.69,4.57-6.87h-10.35l.72-5.32h5.36c4.48,0,6.4-1.11,6.69-6.86H5.25Z"/>
      </g>
      <path id="path5956" class="cls-8" d="M171.45,36.19c-.14-.16-.29-.32-.44-.48-1.33-1.42-2.76-2.89-4.3-4.35-1.53-1.47-3.17-2.93-4.87-4.37-1.72-1.41-3.49-2.82-5.36-4.1-.35-.25-.7-.49-1.05-.73,1.01-.74,2.04-1.48,3.08-2.18.83-.57,1.66-1.13,2.5-1.65.84-.55,1.69-1.07,2.54-1.57,1.69-1.02,3.4-1.96,5.08-2.83,1.13-.58,2.24-1.13,3.34-1.63.06.09.11.18.17.27,4.58,7.54,4.01,16.79-.7,23.62M164.87,42.39c-4.95,3.01-10.79,3.92-16.42,2.54-2.82-.69-5.42-1.91-7.68-3.57-1.2-.87-2.31-1.88-3.3-3,1.07-1.19,2.5-2.7,4.22-4.4,2.1-2.09,4.65-4.47,7.51-6.88.74-.63,1.5-1.26,2.29-1.88.61.53,1.21,1.08,1.79,1.64,1.54,1.44,2.99,2.98,4.38,4.51,1.38,1.56,2.69,3.12,3.9,4.69,1.22,1.55,2.34,3.11,3.37,4.59.28.41.55.8.81,1.2-.28.19-.57.38-.86.56M135.44,26.42c-1.1.76-2.11,1.48-3.02,2.16-1.03-4.59-.51-9.36,1.36-13.57,1.47.43,3.03.97,4.61,1.66,1.68.72,3.38,1.61,5.09,2.62.55.32,1.09.68,1.63,1.03-.15.08-.3.17-.46.26-3.45,1.99-6.58,4.01-9.21,5.83M142.33,5.28c3.98-2.42,8.52-3.47,13.07-3.08,1.12.09,2.24.28,3.35.55,4.48,1.09,8.4,3.52,11.33,6.95-.93.25-1.86.52-2.82.82-1.88.58-3.81,1.23-5.75,1.98-.97.37-1.94.75-2.91,1.16-.98.39-1.94.82-2.9,1.25-1.93.86-3.83,1.79-5.68,2.73-.38.2-.77.4-1.15.61-.34-.18-.67-.35-1-.52-1-.45-1.96-.93-2.94-1.32-1.96-.8-3.89-1.48-5.76-1.97-1.61-.44-3.17-.74-4.63-.96,1.77-3.27,4.4-6.12,7.8-8.19M178.14,9.8c1.43-.53,2.77-.92,3.96-1.29,1.2-.33,2.25-.59,3.12-.82,1.76-.36,2.76-.57,2.76-.57,0,0-1.03.03-2.83.08-.9.07-2,.14-3.26.26-1.25.16-2.67.3-4.21.58-.77.12-1.58.26-2.4.44-.83.18-1.69.33-2.56.56-.13.03-.26.06-.38.09-3.28-4.2-7.84-7.16-13.1-8.44-6.18-1.51-12.59-.52-18.03,2.78-3.99,2.43-7.02,5.84-8.95,9.75-.28-.03-.55-.05-.81-.08-.76-.02-1.48-.04-2.16-.05-.67-.04-1.3.03-1.89.06-.58.03-1.11.07-1.59.09-1.9.28-2.98.43-2.98.43,0,0,1.09,0,2.99,0,.48.04,1,.08,1.57.14.57.06,1.18.07,1.83.21.65.11,1.33.22,2.06.35.13.03.27.07.4.1-2.07,4.83-2.51,10.29-1.13,15.48-.51.39-.98.75-1.39,1.08-.75.59-1.33,1.07-1.74,1.42-.42.36-.64.55-.64.55l-.04.03c-.25.22-.49.46-.7.72-1.06,1.3-1.46,2.93-1.24,4.47-.08.07-.16.14-.24.21-7.15,6.24-11.46,10.92-11.46,10.92h0c-.21.25-.19.61.04.83.23.22.6.2.82-.04,0,0,1.04-1.16,2.98-3.12,1.9-1.93,4.67-4.62,8.12-7.71.23.68.59,1.32,1.08,1.88-2.2,2.18-3.98,4.1-5.31,5.58-1.79,2-2.76,3.23-2.76,3.23h0s0,0,0,0c-.19.25-.15.62.11.81.25.2.62.15.81-.11,0,0,.92-1.19,2.68-3.2,1.3-1.48,3.05-3.41,5.2-5.6.02.01.03.03.04.04.56.45,1.17.78,1.81,1-4.04,4.43-6.3,7.43-6.3,7.43h0c-.19.27-.14.63.13.82.26.19.62.13.81-.13,0,0,.85-1.16,2.46-3.13,1.05-1.28,2.42-2.89,4.07-4.73,1.92.23,3.91-.5,5.22-2.12,0,0,.14-.17.4-.49.14-.17.32-.39.54-.64,3.16,3.45,7.26,5.89,11.9,7.02,1.22.29,2.45.5,3.68.6,5,.43,9.98-.73,14.35-3.39.32-.19.62-.39.93-.6h0c.28.44.55.87.81,1.29,1.67,2.68,2.94,4.97,3.78,6.58.42.8.74,1.43.94,1.85.19.41.29.62.29.62l.02.06c.1.22.23.43.36.63,1.57,2.35,4.74,2.99,7.09,1.42,2.35-1.56,2.99-4.74,1.43-7.09,0,0-.17-.26-.49-.73-.31-.47-.77-1.12-1.36-1.94-1.18-1.63-2.91-3.89-5.11-6.48-.55-.65-1.13-1.32-1.74-2.01,5.44-7.53,6.18-17.91,1.06-26.34,0-.01-.02-.02-.02-.04.66-.29,1.33-.54,1.97-.8.76-.31,1.51-.58,2.22-.83"/>
      <g id="text5960" class="cls-5">
        <text class="cls-6" transform="translate(0 54.07)"><tspan class="cls-4" x="0" y="0">Go </tspan><tspan class="cls-7" x="18.32" y="0">F</tspan><tspan class="cls-9" x="25.04" y="0">a</tspan><tspan class="cls-11" x="31.17" y="0">s</tspan><tspan class="cls-9" x="36.28" y="0">t,</tspan></text>
      </g>
      <path id="path5962" class="cls-1" d="M51.75,48.62c.12.12.25.23.37.34,3.94,3.46,8.94,3.15,12.09,2.61"/>
      <path id="path5964" class="cls-8" d="M48.33,54.3c1.46,0,2.64-.54,3.49-1.24v-3.62h-3.7v1.63h1.59v.98c-.33.22-.75.33-1.29.33-1.28,0-2.18-.93-2.18-2.23v-.02c0-1.23.9-2.21,2.06-2.21.79,0,1.25.22,1.82.7l1.43-1.51c-.85-.74-1.85-1.17-3.26-1.17-2.49,0-4.33,1.84-4.33,4.18v.02c0,2.44,1.87,4.16,4.38,4.16h0Z"/>
      <path id="path5966" class="cls-8" d="M55.72,54.29c2,0,3.45-1.48,3.45-3.25v-.02c0-1.77-1.44-3.23-3.42-3.23s-3.45,1.48-3.45,3.25v.02c0,1.77,1.44,3.23,3.42,3.23ZM55.75,52.44c-.77,0-1.32-.64-1.32-1.4v-.02c0-.75.51-1.38,1.3-1.38s1.32.64,1.32,1.4v.02c0,.75-.51,1.38-1.3,1.38h0Z"/>
      <path id="path5968" class="cls-8" d="M62.62,54.14h4.15c1.92,0,3.04-.84,3.04-2.22v-.02c0-1.09-.62-1.64-1.6-1.96.71-.31,1.24-.86,1.24-1.79v-.02c0-.55-.2-.98-.52-1.3-.47-.47-1.18-.72-2.19-.72h-4.13v8.04ZM64.79,49.31v-1.41h1.45c.67,0,1.01.25,1.01.69v.02c0,.47-.38.7-1.06.7h-1.4ZM64.79,52.35v-1.48h1.7c.75,0,1.09.29,1.09.72v.02c0,.47-.39.74-1.07.74h-1.72Z"/>
      <path id="path5970" class="cls-8" d="M78.44,56.02c1.24,0,1.83-.57,2.37-2.02l2.28-6.07h-2.24l-1.17,3.75-1.24-3.75h-2.29l2.44,6.1c-.14.2-.29.25-.51.25-.24,0-.61-.13-.95-.33l-.68,1.53c.57.32,1.23.54,2,.54h0Z"/>
      <path id="path5972" class="cls-8" d="M86.23,54.29c2,0,3.45-1.48,3.45-3.25v-.02c0-1.77-1.44-3.23-3.42-3.23s-3.45,1.48-3.45,3.25v.02c0,1.77,1.44,3.23,3.42,3.23ZM86.25,52.44c-.77,0-1.32-.64-1.32-1.4v-.02c0-.75.51-1.38,1.3-1.38s1.32.64,1.32,1.4v.02c0,.75-.51,1.38-1.3,1.38h0Z"/>
      <path id="path5974" class="cls-8" d="M90.21,54.14h2.18v-3.37c0-.68.39-1.05.92-1.05s.87.37.87,1.05v3.37h2.18v-4.07c0-1.41-.79-2.29-2.11-2.29-.88,0-1.46.49-1.86,1.01v-.87h-2.18v6.22Z"/>
      <path id="path5976" class="cls-2" d="M65.23,51.57c2.33.03-3,5.16-3.02,3.64-.02-1.38,1.68-1.26,4.74-1.39,7.25-.29,16.77,2.28,14.7,3.06-.82.31-2.03-1.75.45-9.31,3.47-8.29,20.24,11.2,29.74,3.86"/>
      <path id="path5978" class="cls-8" d="M73.4,54.29c1.24,0,2.1-.51,2.7-1.26l-1.21-1c-.45.44-.86.63-1.38.63-.68,0-1.17-.34-1.34-1.02h4.16c.02-.15.02-.31.02-.45,0-1.83-.99-3.4-3.14-3.4-1.84,0-3.14,1.44-3.14,3.25v.02c0,1.93,1.38,3.23,3.33,3.23h0ZM72.14,50.52c.12-.68.51-1.13,1.08-1.13s1,.44,1.08,1.13h-2.16Z"/>
      <g class="cls-10">
        <path id="path5980" class="cls-8" d="M78.44,56.02c1.24,0,1.83-.57,2.37-2.02l2.28-6.07h-2.24l-1.17,3.75-1.24-3.75h-2.29l2.44,6.1c-.14.2-.29.25-.51.25-.24,0-.61-.13-.95-.33l-.68,1.53c.57.32,1.23.54,2,.54h0Z"/>
      </g>
      <path id="path5982" class="cls-8" d="M99.62,54.28c.93,0,1.47-.45,1.9-.97v.83h2.18v-8.39h-2.18v2.93c-.41-.47-.97-.9-1.91-.9-1.47,0-2.73,1.23-2.73,3.25v.02c0,1.99,1.28,3.22,2.75,3.22h0ZM100.29,52.45c-.7,0-1.28-.59-1.28-1.41v-.02c0-.83.57-1.4,1.28-1.4s1.26.59,1.26,1.4v.02c0,.83-.56,1.41-1.26,1.41Z"/>
      <path id="path5984" class="cls-8" d="M90.21,54.14h2.18v-6.22h-2.18v6.22Z"/>
    </g>
  </g>
</svg>