<?xml version="1.0" encoding="UTF-8"?>
<svg id="Layer_2" data-name="Layer 2" xmlns="http://www.w3.org/2000/svg" xmlns:xlink="http://www.w3.org/1999/xlink" viewBox="0 0 1311.66 399.88">
  <defs>
    <style>
      .cls-1 {
        fill: #29d8d4;
      }

      .cls-1, .cls-2, .cls-3, .cls-4 {
        stroke-width: 0px;
      }

      .cls-5 {
        isolation: isolate;
      }

      .cls-2 {
        fill: none;
      }

      .cls-3 {
        fill: #fff;
      }

      .cls-4 {
        fill: url(#Degradado_sin_nombre_9);
      }

      .cls-6 {
        clip-path: url(#clippath);
      }
    </style>
    <linearGradient id="Degradado_sin_nombre_9" data-name="Degradado sin nombre 9" x1="-929.93" y1="2110.86" x2="-683.56" y2="2110.86" gradientTransform="translate(1884.46 3657.85) scale(1.56 -1.56)" gradientUnits="userSpaceOnUse">
      <stop offset="0" stop-color="#29d8d4"/>
      <stop offset="1" stop-color="#fff"/>
    </linearGradient>
    <clipPath id="clippath">
      <polygon class="cls-2" points="547.98 331.1 583.24 331.1 564.71 389.42 549.41 383.93 547.98 331.1"/>
    </clipPath>
  </defs>
  <g id="Layer_1-2" data-name="Layer 1">
    <g>
      <g id="g5954">
        <g id="path5946">
          <path class="cls-3" d="M694.52,126.69l-19.78,151.74h21.49c43.41.51,57.48-.01,64.87-53.35l6.69-52.16c5.43-7.06,12.51-8.48,17.48-8.48,9.58,0,3.9,26.05,2.87,36.15l-1.46,10.59h79.39s24.2-84.46-24.88-84.46-70.74,26.42-70.74,26.42l3.47-26.45h-79.39Z"/>
        </g>
        <g id="path5948">
          <path class="cls-3" d="M369.93,41.61c-67.88,0-78.4,4.15-85.66,47.59l-24.63,189.23c3.23,0,12.88.02,15.92.04,36.49.27,54.38.49,67.19-23.57,0,0,24.46,23.45,60.29,23.45s56.8-27.83,63.72-56.19c8.09,45.03,51.91,56.33,100.06,56.33,64.67,0,94.6-10,101.46-47.82h-79.46c-4.29,19.03-17.53,26.61-26.3,26.61-11.83,0-14.26-13.4-15.1-22.21-.71-7.4-.49-13.59.42-23.81h122.74c8.82-65.38-33.74-83.72-91.56-84.37-59.17,0-94.09,17.81-105.76,46.61l-.14-1.51c-2.55-26.78-17.33-45.17-52.81-45.17-39.19,0-63.56,22.63-63.56,22.63l13.21-107.85ZM580.12,146.98c6.87,0,13.37,4.23,14.75,18.68,1.01,10.57-.98,25.72-.98,25.72h-43.5c4.27-23.26,13.7-44.4,29.73-44.4ZM378.6,158.25c8.78,0,12.12,7.06,12.99,16.22,1.55,16.21-4.12,72.59-28.17,72.59-8.01,0-14.08-6.34-18.06-11.98l8.83-65.8c3.38-4.58,14.48-11.03,24.4-11.03h0Z"/>
        </g>
        <g id="path5950">
          <path class="cls-3" d="M229.51,58.13c-16.65.37-30.53,9.63-34.08,22.73-4.43,16.3,8.44,33.01,28.74,37.31,20.29,4.31,38.67-5.42,43.1-21.72,4.43-16.3-6.78-33.01-27.07-37.31-3.51-.75-7.11-1.09-10.69-1.01h0ZM262.78,126.9c-59.69,0-78.56.75-85.59,42.87l-14.08,108.65h79.92l19.75-151.53Z"/>
        </g>
        <g id="path5952">
          <path class="cls-3" d="M31.44,41.61L.05,278.42h79.57l13.79-103.41h47c23.39,0,28-18.83,31.99-48.11h-72.55l5.01-37.26h37.56c31.4,0,44.86-7.8,46.85-48.03H31.44Z"/>
        </g>
      </g>
      <g id="path5956">
        <path class="cls-3" d="M1195.81,253.56c-1.01-1.11-2.06-2.26-3.11-3.37-9.33-9.92-19.32-20.24-30.09-30.48-10.71-10.31-22.2-20.53-34.12-30.58-12.08-9.89-24.46-19.75-37.53-28.75-2.42-1.74-4.88-3.44-7.33-5.11,7.07-5.21,14.28-10.35,21.61-15.29,5.8-3.96,11.62-7.89,17.52-11.59,5.89-3.86,11.82-7.47,17.78-11,11.86-7.17,23.81-13.75,35.6-19.81,7.89-4.06,15.72-7.89,23.41-11.39.42.62.78,1.24,1.18,1.9,32.09,52.82,28.09,117.62-4.91,165.49M1149.67,297.01c-34.71,21.12-75.58,27.44-115.03,17.78-19.75-4.81-37.95-13.36-53.83-25.02-8.42-6.12-16.18-13.16-23.15-20.99,7.53-8.32,17.52-18.93,29.54-30.84,14.73-14.67,32.58-31.3,52.62-48.17,5.21-4.42,10.54-8.81,16.04-13.2,4.29,3.73,8.48,7.56,12.57,11.49,10.81,10.05,20.92,20.89,30.68,31.6,9.66,10.9,18.86,21.87,27.31,32.84,8.55,10.87,16.37,21.77,23.61,32.19,1.96,2.85,3.86,5.63,5.7,8.41-1.97,1.34-4,2.65-6.06,3.9M943.52,185.09c-7.7,5.3-14.77,10.38-21.19,15.13-7.2-32.16-3.57-65.55,9.56-95.09,10.32,3.01,21.22,6.78,32.29,11.66,11.76,5.01,23.71,11.3,35.63,18.37,3.86,2.26,7.63,4.75,11.43,7.24-1.08.59-2.12,1.21-3.21,1.83-24.16,13.92-46.07,28.1-64.5,40.86M991.78,37.02c27.87-16.93,59.69-24.33,91.59-21.58,7.83.66,15.69,1.93,23.45,3.83,31.37,7.66,58.84,24.66,79.41,48.72-6.48,1.77-13.06,3.67-19.75,5.73-13.16,4.09-26.72,8.65-40.28,13.85-6.81,2.59-13.62,5.24-20.4,8.12-6.84,2.75-13.59,5.73-20.33,8.78-13.52,5.99-26.82,12.54-39.82,19.15-2.69,1.41-5.37,2.82-8.05,4.26-2.36-1.24-4.71-2.45-7.04-3.67-6.98-3.14-13.72-6.48-20.59-9.27-13.72-5.63-27.25-10.35-40.34-13.82-11.26-3.08-22.2-5.21-32.45-6.75,12.38-22.92,30.81-42.89,54.62-57.37M1242.67,68.65c10.02-3.73,19.42-6.42,27.77-9.01,8.39-2.32,15.78-4.16,21.87-5.73,12.31-2.55,19.35-4.03,19.35-4.03,0,0-7.2.2-19.84.59-6.29.46-13.98.98-22.83,1.8-8.74,1.11-18.73,2.13-29.5,4.06-5.4.85-11.04,1.83-16.8,3.08-5.8,1.24-11.86,2.32-17.91,3.9-.89.2-1.8.42-2.69.66-22.95-29.44-54.91-50.13-91.75-59.13-43.32-10.58-88.18-3.67-126.29,19.48-27.97,17-49.15,40.93-62.67,68.27-1.93-.2-3.83-.36-5.7-.56-5.34-.13-10.38-.26-15.1-.36-4.71-.26-9.13.23-13.23.42-4.06.23-7.76.46-11.13.66-13.29,1.93-20.89,3.05-20.89,3.05,0,0,7.63,0,20.95.03,3.34.29,7.01.59,11,.95,3.96.39,8.28.52,12.8,1.47,4.52.75,9.33,1.57,14.41,2.46.92.23,1.87.46,2.82.72-14.47,33.82-17.61,72.1-7.92,108.48-3.6,2.75-6.84,5.27-9.76,7.57-5.24,4.16-9.33,7.5-12.18,9.92-2.92,2.52-4.48,3.86-4.48,3.86l-.26.23c-1.76,1.51-3.4,3.21-4.91,5.08-7.4,9.13-10.22,20.53-8.68,31.34-.59.49-1.14.98-1.7,1.47-50.1,43.75-80.25,76.49-80.25,76.49l-.05.07c-1.47,1.67-1.34,4.22.32,5.73,1.64,1.51,4.22,1.38,5.73-.29,0,0,7.3-8.12,20.86-21.87,13.33-13.52,32.74-32.35,56.88-54.03,1.64,4.75,4.13,9.27,7.53,13.2-15.39,15.26-27.86,28.72-37.2,39.07-12.57,14.02-19.32,22.59-19.32,22.59l-.05.03s0,.03-.05.03c-1.34,1.77-1.02,4.32.75,5.7,1.77,1.38,4.32,1.05,5.7-.75,0,0,6.45-8.35,18.76-22.43,9.1-10.38,21.35-23.87,36.44-39.23.11.09.21.2.32.29,3.9,3.14,8.19,5.47,12.67,6.97-28.29,31.01-44.14,52.06-44.14,52.06l-.05.04v.03c-1.34,1.8-.95,4.35.89,5.7,1.8,1.31,4.32.92,5.66-.89,0,0,5.96-8.12,17.26-21.94,7.34-8.94,16.93-20.24,28.49-33.17,13.46,1.61,27.41-3.54,36.58-14.83,0,0,.98-1.21,2.78-3.44.98-1.21,2.26-2.72,3.77-4.49,22.1,24.16,50.85,41.29,83.37,49.22,8.55,2.06,17.16,3.47,25.77,4.22,35,2.98,69.94-5.14,100.53-23.74,2.23-1.34,4.35-2.75,6.48-4.19h.05c1.96,3.08,3.86,6.09,5.7,9.04,11.69,18.76,20.59,34.84,26.46,46.07,2.95,5.6,5.18,10.05,6.58,12.97,1.31,2.85,2.03,4.35,2.03,4.35l.16.39c.72,1.51,1.58,2.98,2.52,4.42,10.97,16.47,33.2,20.92,49.67,9.96,16.47-10.94,20.96-33.2,9.99-49.67,0,0-1.21-1.8-3.44-5.14-2.19-3.27-5.4-7.83-9.56-13.56-8.28-11.39-20.4-27.24-35.79-45.42-3.86-4.55-7.93-9.27-12.21-14.08,38.08-52.78,43.29-125.48,7.4-184.51-.05-.09-.11-.16-.16-.26,4.65-2.03,9.3-3.77,13.82-5.63,5.3-2.19,10.55-4.06,15.59-5.8"/>
      </g>
      <g id="text5960" class="cls-5">
        <g class="cls-5">
          <path class="cls-3" d="M28.02,379.72c-8.45,0-15.23-2.7-20.34-8.1-5.12-5.4-7.68-12.14-7.68-20.22v-.16c0-7.76,2.6-14.45,7.79-20.07,5.19-5.61,11.8-8.42,19.83-8.42,4.41,0,8.2.6,11.37,1.81s6.23,3.04,9.17,5.51l-4.02,4.72c-4.72-4.19-10.3-6.29-16.76-6.29-5.98,0-10.97,2.2-14.96,6.61-3.98,4.41-5.98,9.73-5.98,15.98v.16c0,6.66,1.98,12.14,5.95,16.45,3.95,4.3,9.24,6.45,15.85,6.45,6.09,0,11.38-1.84,15.89-5.51v-13.69h-16.76v-5.59h22.74v21.95c-6.19,5.61-13.57,8.42-22.11,8.42Z"/>
          <path class="cls-3" d="M79.08,379.72c-6.03,0-11.05-2.06-15.07-6.18-4.02-4.12-6.02-9.09-6.02-14.91v-.16c0-5.87,2.02-10.89,6.06-15.03,4.04-4.15,9.1-6.22,15.19-6.22s11.06,2.06,15.11,6.18c4.04,4.12,6.05,9.09,6.05,14.91v.16c0,5.88-2.03,10.89-6.1,15.03s-9.14,6.22-15.23,6.22ZM79.25,374.29c4.3,0,7.87-1.52,10.7-4.56,2.83-3.04,4.25-6.74,4.25-11.1v-.16c0-4.41-1.46-8.16-4.37-11.25-2.91-3.1-6.49-4.64-10.74-4.64s-7.85,1.53-10.66,4.6-4.21,6.78-4.21,11.13v.16c0,4.41,1.44,8.15,4.32,11.21,2.89,3.07,6.45,4.6,10.71,4.6Z"/>
          <path class="cls-3" d="M130.79,378.77v-55.08h39.58v5.74h-33.37v19.67h29.82v5.66h-29.82v24h-6.21Z"/>
          <path class="cls-3" d="M188.93,379.64c-4.09,0-7.64-1.12-10.66-3.35-3.02-2.23-4.52-5.34-4.52-9.32v-.16c0-4.15,1.58-7.37,4.75-9.68,3.17-2.31,7.39-3.46,12.63-3.46,4.15,0,8.32.58,12.51,1.73v-1.42c0-3.62-1.05-6.37-3.15-8.26s-5.09-2.83-8.97-2.83c-4.09,0-8.21,1-12.36,2.99l-1.81-4.96c4.77-2.26,9.7-3.39,14.79-3.39,5.77,0,10.15,1.49,13.14,4.49,2.78,2.78,4.17,6.74,4.17,11.88v24.87h-5.82v-6.14c-3.56,4.67-8.47,7-14.72,7ZM190.12,374.84c3.83,0,7.05-1.04,9.68-3.11,2.62-2.07,3.93-4.71,3.93-7.91v-3.93c-4.09-1.15-8.08-1.73-11.97-1.73s-6.7.76-8.77,2.28c-2.07,1.52-3.11,3.57-3.11,6.14v.16c0,2.47.99,4.43,2.99,5.9,1.99,1.47,4.41,2.2,7.24,2.2Z"/>
          <path class="cls-3" d="M233.23,379.56c-6.25,0-11.86-1.99-16.84-5.98l3.07-4.33c4.51,3.46,9.21,5.19,14.09,5.19,2.52,0,4.55-.58,6.1-1.73s2.33-2.73,2.33-4.72v-.16c0-1.84-.87-3.25-2.6-4.25-1.73-1-4.25-1.97-7.55-2.91-1.47-.42-2.55-.75-3.23-.98-.68-.24-1.68-.62-2.99-1.14-1.31-.52-2.29-1.03-2.95-1.53s-1.37-1.13-2.13-1.89c-.76-.76-1.31-1.64-1.65-2.64s-.51-2.1-.51-3.3v-.16c0-3.46,1.3-6.27,3.89-8.42,2.6-2.15,5.92-3.23,9.95-3.23,5.25,0,10.13,1.49,14.64,4.49l-2.76,4.56c-4.04-2.62-8.05-3.93-12.04-3.93-2.36,0-4.26.55-5.7,1.65-1.44,1.1-2.17,2.52-2.17,4.25v.16c0,.74.21,1.42.63,2.05.42.63.9,1.15,1.42,1.57.53.42,1.35.87,2.48,1.34,1.12.47,2.03.81,2.71,1.02.68.21,1.76.55,3.23,1.02,1.52.47,2.79.89,3.82,1.26,1.02.37,2.18.88,3.46,1.54s2.31,1.36,3.07,2.12,1.4,1.72,1.93,2.87c.53,1.16.79,2.44.79,3.86v.16c0,3.78-1.36,6.75-4.09,8.93-2.73,2.18-6.19,3.27-10.39,3.27Z"/>
          <path class="cls-3" d="M269.2,379.48c-3.52,0-6.31-.93-8.38-2.79-2.07-1.86-3.11-4.76-3.11-8.69v-24.55h-5.66v-5.35h5.66v-12.27h6.05v12.27h12.91v5.35h-12.91v23.76c0,4.51,2.29,6.77,6.85,6.77,1.99,0,3.96-.47,5.9-1.42v5.19c-2.1,1.15-4.54,1.73-7.32,1.73Z"/>
          <path class="cls-3" d="M282.58,388.37l-.94-2.75c3.83-1.42,5.59-3.7,5.27-6.85h-2.83v-8.26h7.24v7.08c0,3.15-.7,5.56-2.09,7.24-1.39,1.68-3.61,2.86-6.65,3.54Z"/>
        </g>
      </g>
      <g id="path5962">
        <path class="cls-1" d="M419.31,364.76c-24.23,0-44.41-6.98-60.23-20.86-.89-.79-1.77-1.6-2.65-2.44l-.83-.8,1.6-1.68.83.8c.86.82,1.72,1.61,2.59,2.37,20.51,18.01,48.7,24.07,83.76,18l1.14-.2.4,2.29-1.14.2c-8.92,1.54-17.42,2.31-25.46,2.31Z"/>
      </g>
      <g id="path5964">
        <path class="cls-3" d="M333.27,380.45c10.22,0,18.51-3.78,24.47-8.69v-25.36h-25.92v11.43h11.11v6.84c-2.34,1.53-5.23,2.33-9.02,2.33-8.94,0-15.29-6.52-15.29-15.62v-.16c0-8.61,6.28-15.46,14.41-15.46,5.55,0,8.74,1.51,12.77,4.9l10.01-10.61c-5.96-5.15-12.96-8.21-22.86-8.21-17.47,0-30.35,12.88-30.35,29.3v.16c0,17.07,13.12,29.14,30.67,29.14h0Z"/>
      </g>
      <g id="path5966">
        <path class="cls-3" d="M385.05,380.37c14.01,0,24.15-10.38,24.15-22.78v-.16c0-12.4-10.06-22.62-23.99-22.62s-24.15,10.38-24.15,22.78v.16c0,12.4,10.06,22.62,23.99,22.62ZM385.2,367.41c-5.39,0-9.26-4.51-9.26-9.82v-.16c0-5.23,3.54-9.66,9.1-9.66s9.26,4.51,9.26,9.82v.16c0,5.23-3.54,9.66-9.1,9.66h0Z"/>
      </g>
      <g id="path5968">
        <path class="cls-3" d="M433.38,379.33h29.06c13.44,0,21.33-5.88,21.33-15.54v-.16c0-7.65-4.35-11.51-11.19-13.77,4.99-2.17,8.69-6.04,8.69-12.56v-.16c0-3.86-1.37-6.84-3.62-9.1-3.3-3.3-8.29-5.07-15.38-5.07h-28.9v56.35ZM448.59,345.44v-9.9h10.14c4.67,0,7.08,1.77,7.08,4.83v.16c0,3.3-2.66,4.91-7.41,4.91h-9.82ZM448.59,366.77v-10.38h11.92c5.23,0,7.65,2.01,7.65,5.07v.16c0,3.3-2.74,5.15-7.49,5.15h-12.08Z"/>
      </g>
      <g id="path5970">
        <path class="cls-3" d="M544.17,392.45c8.69,0,12.8-4.02,16.58-14.17l15.94-42.5h-15.7l-8.21,26.24-8.69-26.24h-16.02l17.07,42.75c-.96,1.37-2.01,1.77-3.54,1.77-1.69,0-4.27-.89-6.68-2.33l-4.75,10.71c4.03,2.25,8.61,3.78,14.01,3.78h0Z"/>
      </g>
      <g id="path5972">
        <path class="cls-3" d="M598.76,380.37c14.01,0,24.15-10.38,24.15-22.78v-.16c0-12.4-10.06-22.62-23.99-22.62s-24.15,10.38-24.15,22.78v.16c0,12.4,10.06,22.62,23.99,22.62ZM598.92,367.41c-5.39,0-9.26-4.51-9.26-9.82v-.16c0-5.23,3.54-9.66,9.1-9.66s9.26,4.51,9.26,9.82v.16c0,5.23-3.54,9.66-9.1,9.66h0Z"/>
      </g>
      <g id="path5974">
        <path class="cls-3" d="M626.63,379.33h15.29v-23.59c0-4.75,2.74-7.33,6.44-7.33s6.12,2.58,6.12,7.33v23.59h15.29v-28.5c0-9.9-5.55-16.02-14.81-16.02-6.2,0-10.22,3.46-13.04,7.08v-6.12h-15.29v43.55Z"/>
      </g>
      <g id="path5976">
        <path class="cls-4" d="M565.58,399.88c-1.16,0-2.3-.49-3.28-1.42-1.37-1.31-2.48-3.5-3.17-6.67-17.75-6.77-59.79-15.02-95.4-13.56-2.44.1-4.76.18-6.95.25-3.24.11-6.13.21-8.69.36-5.64,5.94-12.5,11.07-15.88,11.09h-.01c-1.78,0-2.85-1.17-2.88-3.13-.09-7.73,6.43-9.53,17.71-10.23,4.18-4.52,7.54-9.34,7.55-12.16,0-.61,0-1.89-2.98-1.92-.64,0-1.16-.53-1.15-1.18s.6-1.15,1.18-1.15c4.78.05,5.28,3,5.28,4.26-.01,3.02-2.82,7.56-6.61,11.99,2.01-.09,4.15-.16,6.41-.24,2.18-.07,4.49-.15,6.93-.25,32.24-1.29,75.04,5.84,95.04,13.21-1.31-10.32.93-28.44,10.04-56.18,3-7.19,7.37-11.73,13.38-13.95,16.38-6.03,41.6,6.67,70.82,21.4,42.3,21.33,90.24,45.52,124.53,19,.51-.39,1.25-.29,1.63.21.4.51.3,1.24-.21,1.63-35.43,27.39-84.08,2.88-127-18.76-28.74-14.49-53.54-27.01-68.97-21.3-5.37,1.98-9.3,6.1-12.01,12.58-10.63,32.39-11.08,48.55-9.69,56.35,5.08,2.09,8.21,4.18,8.59,6.07.17.83.05,2.39-2.71,3.44-.49.19-1.01.28-1.51.28ZM561.88,392.91c.79,2.54,1.72,3.59,2.03,3.88.77.74,1.57.94,2.36.65.98-.37,1.24-.71,1.26-.78,0,0,0-.21-.42-.64-.9-.94-2.7-1.99-5.23-3.1ZM444.59,379.07c-9.12.76-13.01,2.45-12.94,7.69,0,.84.23.84.56.83,2.39-.01,7.59-3.83,12.38-8.53Z"/>
      </g>
      <g id="path5978">
        <path class="cls-3" d="M508.9,380.37c8.69,0,14.73-3.54,18.92-8.86l-8.45-7c-3.14,3.06-6.04,4.43-9.66,4.43-4.75,0-8.21-2.42-9.42-7.16h29.14c.11-1.05.11-2.17.11-3.14,0-12.8-6.92-23.83-21.98-23.83-12.88,0-21.98,10.06-21.98,22.78v.16c0,13.52,9.66,22.62,23.35,22.62h-.03ZM500.04,353.97c.81-4.75,3.54-7.89,7.57-7.89s7,3.06,7.57,7.89h-15.13Z"/>
      </g>
      <g class="cls-6">
        <g id="path5980">
          <path class="cls-3" d="M544.17,392.45c8.69,0,12.8-4.03,16.58-14.17l15.94-42.5h-15.7l-8.21,26.24-8.69-26.24h-16.02l17.07,42.75c-.97,1.37-2.01,1.77-3.54,1.77-1.69,0-4.27-.89-6.68-2.33l-4.75,10.71c4.03,2.25,8.61,3.78,14.01,3.78h0Z"/>
        </g>
      </g>
      <g id="path5982">
        <path class="cls-3" d="M692.57,380.29c6.52,0,10.3-3.14,13.28-6.76v5.8h15.29v-58.77h-15.29v20.53c-2.9-3.3-6.76-6.28-13.36-6.28-10.3,0-19.16,8.61-19.16,22.78v.16c0,13.93,8.94,22.54,19.24,22.54h0ZM697.24,367.49c-4.91,0-8.94-4.11-8.94-9.9v-.16c0-5.8,4.03-9.82,8.94-9.82s8.86,4.11,8.86,9.82v.16c0,5.8-3.94,9.9-8.86,9.9Z"/>
      </g>
      <g id="path5984">
        <path class="cls-3" d="M626.63,379.33h15.29v-43.55h-15.29v43.55Z"/>
      </g>
    </g>
  </g>
</svg>