<?xml version="1.0" encoding="UTF-8"?>
<svg id="Layer_2" data-name="Layer 2" xmlns="http://www.w3.org/2000/svg" xmlns:xlink="http://www.w3.org/1999/xlink" viewBox="0 0 187.99 57.11">
  <defs>
    <style>
      .cls-1, .cls-2 {
        fill: #081325;
      }

      .cls-1, .cls-3, .cls-4, .cls-5 {
        stroke-width: 0px;
      }

      .cls-2 {
        font-family: Gotham-Book, Gotham;
        font-size: 11.21px;
      }

      .cls-2, .cls-6 {
        isolation: isolate;
      }

      .cls-3, .cls-7, .cls-8 {
        fill: none;
      }

      .cls-7 {
        stroke: url(#Degradado_sin_nombre_7);
        stroke-linejoin: round;
        stroke-width: .87px;
      }

      .cls-7, .cls-8 {
        stroke-linecap: square;
      }

      .cls-8 {
        stroke: #29d8d4;
        stroke-linejoin: bevel;
        stroke-width: .87px;
      }

      .cls-9 {
        letter-spacing: -.03em;
      }

      .cls-10 {
        letter-spacing: -.04em;
      }

      .cls-4 {
        fill: #132137;
      }

      .cls-11 {
        clip-path: url(#clippath);
      }

      .cls-12 {
        letter-spacing: -.06em;
      }

      .cls-5 {
        fill: #0097ff;
      }
    </style>
    <linearGradient id="Degradado_sin_nombre_7" data-name="Degradado sin nombre 7" x1="-1550.71" y1="1655.17" x2="-1539.62" y2="1655.17" gradientTransform="translate(6448.26 6867.8) scale(4.12 -4.12)" gradientUnits="userSpaceOnUse">
      <stop offset="0" stop-color="#29d8d4"/>
      <stop offset="1" stop-color="#0097ff"/>
    </linearGradient>
    <clipPath id="clippath">
      <polygon class="cls-3" points="78.82 47.04 83.85 47.04 81.21 55.35 79.03 54.56 78.82 47.04"/>
    </clipPath>
  </defs>
  <g id="svg5">
    <g>
      <g id="g394102">
        <path id="path394096" class="cls-1" d="M102.05,17.55l-2.82,21.62h3.06c6.18.07,8.19,0,9.24-7.6l.95-7.43c.77-1.01,1.78-1.21,2.49-1.21,1.36,0,.56,3.71.41,5.15l-.21,1.51h11.31s3.45-12.03-3.54-12.03-10.08,3.76-10.08,3.76l.49-3.77h-11.31Z"/>
        <path id="path394094" class="cls-1" d="M55.81,5.43c-9.67,0-11.17.59-12.2,6.78l-3.51,26.96c.46,0,1.84,0,2.27,0,5.2.04,7.75.07,9.57-3.36,0,0,3.48,3.34,8.59,3.34s8.09-3.96,9.08-8c1.15,6.41,7.39,8.02,14.25,8.02,9.21,0,13.48-1.43,14.45-6.81h-11.32c-.61,2.71-2.5,3.79-3.75,3.79-1.69,0-2.03-1.91-2.15-3.16-.1-1.05-.07-1.94.06-3.39h17.48c1.26-9.31-4.81-11.93-13.04-12.02-8.43,0-13.4,2.54-15.07,6.64l-.02-.22c-.36-3.82-2.47-6.43-7.52-6.43-5.58,0-9.05,3.22-9.05,3.22l1.88-15.36ZM85.75,20.44c.98,0,1.91.6,2.1,2.66.14,1.51-.14,3.66-.14,3.66h-6.2c.61-3.31,1.95-6.33,4.23-6.33ZM57.05,22.05c1.25,0,1.73,1.01,1.85,2.31.22,2.31-.59,10.34-4.01,10.34-1.14,0-2.01-.9-2.57-1.71l1.26-9.37c.48-.65,2.06-1.57,3.48-1.57h0Z"/>
        <path id="path394098" class="cls-1" d="M35.81,7.79c-2.37.05-4.35,1.37-4.85,3.24-.63,2.32,1.2,4.7,4.09,5.31,2.89.61,5.51-.77,6.14-3.09.63-2.32-.97-4.7-3.86-5.31-.5-.11-1.01-.15-1.52-.14h0ZM40.55,17.58c-8.5,0-11.19.11-12.19,6.11l-2.01,15.48h11.38l2.81-21.58Z"/>
        <path id="path394100" class="cls-1" d="M7.6,5.43L3.12,39.17h11.33l1.96-14.73h6.69c3.33,0,3.99-2.68,4.56-6.85h-10.33l.71-5.31h5.35c4.47,0,6.39-1.11,6.67-6.84H7.6Z"/>
      </g>
      <path id="path15777-1" class="cls-5" d="M171.48,36.12c-.14-.16-.29-.32-.44-.48-1.33-1.41-2.75-2.88-4.29-4.34-1.52-1.47-3.16-2.92-4.86-4.36-1.72-1.41-3.48-2.81-5.35-4.1-.35-.25-.69-.49-1.04-.73,1.01-.74,2.03-1.47,3.08-2.18.83-.56,1.66-1.12,2.5-1.65.84-.55,1.68-1.06,2.53-1.57,1.69-1.02,3.39-1.96,5.07-2.82,1.12-.58,2.24-1.12,3.34-1.62.06.09.11.18.17.27,4.57,7.52,4,16.75-.7,23.57M164.91,42.31c-4.94,3.01-10.77,3.91-16.39,2.53-2.81-.69-5.41-1.9-7.67-3.56-1.2-.87-2.3-1.88-3.3-2.99,1.07-1.18,2.5-2.7,4.21-4.39,2.1-2.09,4.64-4.46,7.5-6.86.74-.63,1.5-1.25,2.29-1.88.61.53,1.21,1.08,1.79,1.64,1.54,1.43,2.98,2.98,4.37,4.5,1.38,1.55,2.69,3.12,3.89,4.68,1.22,1.55,2.33,3.1,3.36,4.59.28.41.55.8.81,1.2-.28.19-.57.38-.86.56M135.54,26.37c-1.1.76-2.1,1.48-3.02,2.15-1.03-4.58-.51-9.34,1.36-13.55,1.47.43,3.02.97,4.6,1.66,1.67.71,3.38,1.61,5.07,2.62.55.32,1.09.68,1.63,1.03-.15.08-.3.17-.46.26-3.44,1.98-6.56,4-9.19,5.82M142.42,5.27c3.97-2.41,8.5-3.47,13.05-3.07,1.11.09,2.23.28,3.34.55,4.47,1.09,8.38,3.51,11.31,6.94-.92.25-1.86.52-2.81.82-1.88.58-3.81,1.23-5.74,1.97-.97.37-1.94.75-2.91,1.16-.97.39-1.94.82-2.9,1.25-1.93.85-3.82,1.79-5.67,2.73-.38.2-.76.4-1.15.61-.34-.18-.67-.35-1-.52-.99-.45-1.95-.92-2.93-1.32-1.95-.8-3.88-1.47-5.75-1.97-1.6-.44-3.16-.74-4.62-.96,1.76-3.27,4.39-6.11,7.78-8.17M178.16,9.78c1.43-.53,2.77-.91,3.96-1.28,1.19-.33,2.25-.59,3.12-.82,1.75-.36,2.76-.57,2.76-.57,0,0-1.03.03-2.83.08-.9.06-1.99.14-3.25.26-1.25.16-2.67.3-4.2.58-.77.12-1.57.26-2.39.44-.83.18-1.69.33-2.55.55-.13.03-.26.06-.38.09-3.27-4.19-7.82-7.14-13.07-8.42-6.17-1.51-12.56-.52-17.99,2.77-3.98,2.42-7,5.83-8.93,9.73-.28-.03-.55-.05-.81-.08-.76-.02-1.48-.04-2.15-.05-.67-.04-1.3.03-1.88.06-.58.03-1.11.06-1.59.09-1.89.28-2.98.43-2.98.43,0,0,1.09,0,2.99,0,.48.04,1,.08,1.57.14.56.06,1.18.07,1.82.21.64.11,1.33.22,2.05.35.13.03.27.06.4.1-2.06,4.82-2.51,10.27-1.13,15.45-.51.39-.97.75-1.39,1.08-.75.59-1.33,1.07-1.74,1.41-.42.36-.64.55-.64.55l-.04.03c-.25.21-.48.46-.7.72-1.05,1.3-1.46,2.92-1.24,4.46-.08.07-.16.14-.24.21-7.14,6.23-11.43,10.9-11.43,10.9h0c-.21.25-.19.61.04.83.23.21.6.2.82-.04,0,0,1.04-1.16,2.97-3.12,1.9-1.93,4.66-4.61,8.1-7.7.23.68.59,1.32,1.07,1.88-2.19,2.17-3.97,4.09-5.3,5.56-1.79,2-2.75,3.22-2.75,3.22h0s0,0,0,0c-.19.25-.14.62.11.81.25.2.62.15.81-.11,0,0,.92-1.19,2.67-3.2,1.3-1.48,3.04-3.4,5.19-5.59.01.01.03.03.04.04.56.45,1.17.78,1.8.99-4.03,4.42-6.29,7.42-6.29,7.42h0c-.19.27-.14.63.13.82.26.19.61.13.81-.13,0,0,.85-1.16,2.46-3.13,1.04-1.27,2.41-2.88,4.06-4.72,1.92.23,3.9-.5,5.21-2.11,0,0,.14-.17.4-.49.14-.17.32-.39.54-.64,3.15,3.44,7.24,5.88,11.88,7.01,1.22.29,2.44.49,3.67.6,4.99.42,9.96-.73,14.32-3.38.32-.19.62-.39.92-.6h0c.28.44.55.87.81,1.29,1.67,2.67,2.93,4.96,3.77,6.56.42.8.74,1.43.94,1.85.19.41.29.62.29.62l.02.06c.1.21.22.42.36.63,1.56,2.35,4.73,2.98,7.08,1.42,2.35-1.56,2.99-4.73,1.42-7.08,0,0-.17-.26-.49-.73-.31-.47-.77-1.12-1.36-1.93-1.18-1.62-2.91-3.88-5.1-6.47-.55-.65-1.13-1.32-1.74-2.01,5.42-7.52,6.17-17.87,1.05-26.28,0-.01-.01-.02-.02-.04.66-.29,1.32-.54,1.97-.8.76-.31,1.5-.58,2.22-.83"/>
      <g id="text513160-3" class="cls-6">
        <text class="cls-2" transform="translate(0 53.83)"><tspan class="cls-9" x="0" y="0">Go </tspan><tspan class="cls-12" x="18.28" y="0">F</tspan><tspan class="cls-9" x="24.99" y="0">a</tspan><tspan class="cls-10" x="31.11" y="0">s</tspan><tspan class="cls-9" x="36.21" y="0">t,</tspan></text>
      </g>
      <path id="path555078-4" class="cls-8" d="M51.65,48.4c.12.12.25.23.37.34,3.93,3.45,8.92,3.15,12.07,2.6"/>
      <path id="path34875-8" class="cls-4" d="M48.24,54.07c1.46,0,2.64-.54,3.49-1.24v-3.61h-3.69v1.63h1.58v.97c-.33.22-.75.33-1.28.33-1.27,0-2.18-.93-2.18-2.22v-.02c0-1.23.89-2.2,2.05-2.2.79,0,1.25.22,1.82.7l1.43-1.51c-.85-.73-1.85-1.17-3.26-1.17-2.49,0-4.32,1.83-4.32,4.17v.02c0,2.43,1.87,4.15,4.37,4.15h0Z"/>
      <path id="path34877-6" class="cls-4" d="M55.61,54.06c2,0,3.44-1.48,3.44-3.25v-.02c0-1.77-1.43-3.22-3.42-3.22s-3.44,1.48-3.44,3.25v.02c0,1.77,1.43,3.22,3.42,3.22ZM55.64,52.21c-.77,0-1.32-.64-1.32-1.4v-.02c0-.75.5-1.38,1.3-1.38s1.32.64,1.32,1.4v.02c0,.75-.5,1.38-1.3,1.38h0Z"/>
      <path id="path34879-6" class="cls-4" d="M62.5,53.91h4.14c1.92,0,3.04-.84,3.04-2.21v-.02c0-1.09-.62-1.64-1.59-1.96.71-.31,1.24-.86,1.24-1.79v-.02c0-.55-.19-.97-.52-1.3-.47-.47-1.18-.72-2.19-.72h-4.12v8.03ZM64.66,49.08v-1.41h1.44c.66,0,1.01.25,1.01.69v.02c0,.47-.38.7-1.06.7h-1.4ZM64.66,52.12v-1.48h1.7c.75,0,1.09.29,1.09.72v.02c0,.47-.39.73-1.07.73h-1.72Z"/>
      <path id="path34883-1" class="cls-4" d="M78.28,55.78c1.24,0,1.82-.57,2.36-2.02l2.27-6.05h-2.24l-1.17,3.74-1.24-3.74h-2.28l2.43,6.09c-.14.19-.29.25-.5.25-.24,0-.61-.13-.95-.33l-.68,1.53c.57.32,1.23.54,2,.54h0Z"/>
      <path id="path34885-7" class="cls-4" d="M86.06,54.06c2,0,3.44-1.48,3.44-3.25v-.02c0-1.77-1.43-3.22-3.42-3.22s-3.44,1.48-3.44,3.25v.02c0,1.77,1.43,3.22,3.42,3.22h0ZM86.08,52.21c-.77,0-1.32-.64-1.32-1.4v-.02c0-.75.5-1.38,1.3-1.38s1.32.64,1.32,1.4v.02c0,.75-.5,1.38-1.3,1.38Z"/>
      <path id="path34887-1" class="cls-4" d="M90.03,53.91h2.18v-3.36c0-.68.39-1.04.92-1.04s.87.37.87,1.04v3.36h2.18v-4.06c0-1.41-.79-2.28-2.11-2.28-.88,0-1.46.49-1.86,1.01v-.87h-2.18v6.2Z"/>
      <path id="path550062-4" class="cls-7" d="M65.1,51.34c2.33.03-2.99,5.15-3.01,3.63-.01-1.38,1.68-1.26,4.73-1.38,7.23-.29,16.73,2.27,14.67,3.06-.82.31-2.03-1.75.45-9.29,3.46-8.27,20.2,11.18,29.68,3.85"/>
      <path id="path34881-0" class="cls-4" d="M73.26,54.06c1.24,0,2.1-.5,2.69-1.26l-1.2-1c-.45.44-.86.63-1.38.63-.68,0-1.17-.34-1.34-1.02h4.15c.01-.15.01-.31.01-.45,0-1.82-.99-3.39-3.13-3.39-1.83,0-3.13,1.43-3.13,3.25v.02c0,1.93,1.38,3.22,3.33,3.22h0ZM71.99,50.3c.12-.68.5-1.12,1.08-1.12s1,.44,1.08,1.12h-2.16Z"/>
      <g class="cls-11">
        <path id="path34999-1" class="cls-4" d="M78.28,55.78c1.24,0,1.82-.57,2.36-2.02l2.27-6.05h-2.24l-1.17,3.74-1.24-3.74h-2.28l2.43,6.09c-.14.19-.29.25-.5.25-.24,0-.61-.13-.95-.33l-.68,1.53c.57.32,1.23.54,2,.54h0Z"/>
      </g>
      <path id="path34889-1" class="cls-4" d="M99.42,54.05c.93,0,1.47-.45,1.89-.96v.83h2.18v-8.37h-2.18v2.92c-.41-.47-.96-.89-1.9-.89-1.47,0-2.73,1.23-2.73,3.25v.02c0,1.98,1.27,3.21,2.74,3.21h0ZM100.09,52.22c-.7,0-1.27-.58-1.27-1.41v-.02c0-.83.57-1.4,1.27-1.4s1.26.58,1.26,1.4v.02c0,.83-.56,1.41-1.26,1.41Z"/>
      <path id="path1533" class="cls-4" d="M90.03,53.91h2.18v-6.2h-2.18v6.2Z"/>
    </g>
  </g>
</svg>