<?xml version="1.0" encoding="UTF-8"?>
<svg id="Layer_2" data-name="Layer 2" xmlns="http://www.w3.org/2000/svg" xmlns:xlink="http://www.w3.org/1999/xlink" viewBox="0 0 1310.91 399.88">
  <defs>
    <style>
      .cls-1 {
        fill: #29d8d4;
      }

      .cls-1, .cls-2, .cls-3, .cls-4, .cls-5, .cls-6 {
        stroke-width: 0px;
      }

      .cls-7 {
        isolation: isolate;
      }

      .cls-2 {
        fill: none;
      }

      .cls-3 {
        fill: #132137;
      }

      .cls-4 {
        fill: #081325;
      }

      .cls-5 {
        fill: url(#Degradado_sin_nombre_7);
      }

      .cls-6 {
        fill: #0097ff;
      }

      .cls-8 {
        clip-path: url(#clippath);
      }
    </style>
    <linearGradient id="Degradado_sin_nombre_7" data-name="Degradado sin nombre 7" x1="1145.18" y1="1760.01" x2="1218.13" y2="1760.01" gradientTransform="translate(-4281.15 7605.48) scale(4.12 -4.12)" gradientUnits="userSpaceOnUse">
      <stop offset="0" stop-color="#29d8d4"/>
      <stop offset="1" stop-color="#0097ff"/>
    </linearGradient>
    <clipPath id="clippath">
      <polygon class="cls-2" points="546.57 329.36 581.74 329.36 563.26 387.54 548 382.06 546.57 329.36"/>
    </clipPath>
  </defs>
  <g id="Layer_1-2" data-name="Layer 1">
    <g>
      <g id="g394102">
        <g id="path394096">
          <path class="cls-4" d="M709.21,122.9l-19.73,151.35h21.43c43.3.51,57.33-.01,64.7-53.22l6.68-52.03c5.42-7.04,12.47-8.46,17.43-8.46,9.56,0,3.89,25.99,2.87,36.05l-1.46,10.57h79.19s24.14-84.24-24.82-84.24-70.56,26.35-70.56,26.35l3.46-26.38h-79.19Z"/>
        </g>
        <g id="path394094">
          <path class="cls-4" d="M385.45,38.04c-67.7,0-78.2,4.14-85.43,47.46l-24.57,188.74c3.22,0,12.85.02,15.88.04,36.39.27,54.24.49,67.02-23.5,0,0,24.39,23.39,60.13,23.39s56.66-27.76,63.55-56.04c8.07,44.91,51.78,56.18,99.8,56.18,64.51,0,94.35-9.98,101.2-47.7h-79.26c-4.28,18.98-17.48,26.54-26.23,26.54-11.8,0-14.23-13.37-15.06-22.15-.7-7.38-.49-13.56.41-23.75h122.43c8.8-65.21-33.66-83.51-91.32-84.15-59.02,0-93.85,17.77-105.49,46.49l-.14-1.51c-2.55-26.71-17.28-45.05-52.68-45.05-39.09,0-63.4,22.57-63.4,22.57l13.17-107.57ZM595.1,143.14c6.85,0,13.34,4.22,14.71,18.63,1.01,10.55-.97,25.66-.97,25.66h-43.39c4.26-23.2,13.67-44.29,29.65-44.29ZM394.1,154.38c8.76,0,12.08,7.04,12.96,16.18,1.54,16.17-4.11,72.4-28.09,72.4-7.99,0-14.04-6.32-18.01-11.95l8.81-65.63c3.37-4.57,14.44-11,24.34-11h0Z"/>
        </g>
        <g id="path394098">
          <path class="cls-4" d="M245.4,54.52c-16.61.37-30.45,9.6-33.99,22.67-4.41,16.26,8.42,32.92,28.66,37.21,20.24,4.3,38.57-5.4,42.99-21.66,4.41-16.26-6.76-32.92-27-37.21-3.5-.75-7.09-1.08-10.66-1.01h0ZM278.58,123.11c-59.54,0-78.36.75-85.37,42.76l-14.04,108.37h79.72l19.7-151.13Z"/>
        </g>
        <g id="path394100">
          <path class="cls-4" d="M47.84,38.04l-31.31,236.2h79.36l13.75-103.15h46.88c23.33,0,27.92-18.78,31.9-47.99h-72.36l5-37.17h37.47c31.32,0,44.74-7.78,46.73-47.9H47.84Z"/>
        </g>
      </g>
      <g id="path15777-1">
        <path class="cls-6" d="M1195.36,252.91c-1.01-1.11-2.06-2.25-3.1-3.36-9.31-9.9-19.27-20.18-30.02-30.41-10.68-10.29-22.14-20.48-34.03-30.5-12.05-9.86-24.4-19.69-37.43-28.68-2.42-1.73-4.86-3.43-7.32-5.1,7.05-5.19,14.24-10.32,21.56-15.25,5.78-3.95,11.59-7.87,17.47-11.56,5.88-3.85,11.79-7.45,17.73-10.98,11.83-7.15,23.75-13.72,35.5-19.76,7.87-4.05,15.68-7.87,23.35-11.37.42.62.78,1.24,1.18,1.89,32.01,52.68,28.02,117.31-4.9,165.06M1149.35,296.25c-34.62,21.07-75.38,27.37-114.74,17.74-19.69-4.8-37.85-13.33-53.69-24.95-8.39-6.11-16.13-13.13-23.09-20.94,7.51-8.29,17.47-18.88,29.46-30.77,14.69-14.63,32.49-31.22,52.48-48.04,5.19-4.41,10.52-8.79,16-13.16,4.28,3.72,8.46,7.54,12.54,11.46,10.78,10.03,20.87,20.84,30.6,31.52,9.63,10.88,18.81,21.82,27.24,32.76,8.53,10.84,16.33,21.72,23.55,32.1,1.96,2.84,3.85,5.62,5.68,8.39-1.96,1.34-3.98,2.65-6.04,3.89M943.72,184.61c-7.68,5.29-14.73,10.35-21.13,15.09-7.19-32.07-3.56-65.38,9.53-94.84,10.29,3.01,21.16,6.76,32.2,11.63,11.72,5,23.65,11.27,35.53,18.32,3.85,2.25,7.61,4.73,11.4,7.22-1.08.59-2.12,1.21-3.2,1.83-24.1,13.88-45.95,28.02-64.34,40.76M991.86,36.93c27.8-16.89,59.54-24.27,91.35-21.52,7.81.65,15.64,1.93,23.39,3.82,31.29,7.64,58.69,24.59,79.2,48.6-6.47,1.76-13.03,3.66-19.69,5.71-13.13,4.08-26.65,8.62-40.17,13.82-6.79,2.58-13.59,5.22-20.35,8.1-6.83,2.74-13.55,5.72-20.28,8.75-13.49,5.98-26.75,12.51-39.72,19.1-2.68,1.41-5.35,2.81-8.03,4.25-2.35-1.24-4.7-2.45-7.02-3.66-6.96-3.14-13.69-6.47-20.54-9.24-13.69-5.62-27.18-10.32-40.24-13.78-11.23-3.07-22.14-5.19-32.36-6.73,12.34-22.86,30.73-42.78,54.47-57.22M1242.1,68.48c9.99-3.72,19.37-6.4,27.7-8.98,8.36-2.32,15.74-4.15,21.82-5.71,12.28-2.55,19.3-4.02,19.3-4.02,0,0-7.18.2-19.79.59-6.27.46-13.95.98-22.77,1.8-8.72,1.11-18.68,2.12-29.43,4.05-5.39.85-11.01,1.83-16.75,3.07-5.78,1.24-11.83,2.32-17.87,3.89-.88.2-1.79.42-2.68.65-22.89-29.36-54.77-50-91.51-58.98-43.21-10.55-87.95-3.66-125.97,19.43-27.89,16.95-49.02,40.83-62.51,68.1-1.93-.2-3.82-.36-5.68-.56-5.32-.13-10.35-.26-15.06-.36-4.7-.26-9.11.23-13.19.42-4.05.23-7.74.46-11.11.65-13.26,1.93-20.84,3.04-20.84,3.04,0,0,7.61,0,20.9.03,3.33.29,6.99.59,10.98.95,3.95.39,8.26.52,12.77,1.47,4.51.75,9.31,1.57,14.37,2.45.92.23,1.86.46,2.81.72-14.43,33.74-17.57,71.92-7.9,108.2-3.59,2.74-6.83,5.26-9.73,7.55-5.22,4.15-9.31,7.48-12.15,9.9-2.91,2.51-4.47,3.85-4.47,3.85l-.26.23c-1.76,1.5-3.39,3.2-4.9,5.06-7.38,9.11-10.19,20.48-8.66,31.25-.59.49-1.14.98-1.7,1.47-49.97,43.63-80.05,76.29-80.05,76.29l-.06.07c-1.46,1.67-1.34,4.21.31,5.71,1.63,1.5,4.21,1.37,5.71-.29,0,0,7.28-8.1,20.8-21.82,13.29-13.49,32.66-32.27,56.73-53.89,1.63,4.74,4.12,9.24,7.51,13.16-15.35,15.22-27.79,28.64-37.1,38.96-12.54,13.98-19.27,22.54-19.27,22.54l-.04.03s0,.03-.04.03c-1.34,1.77-1.01,4.31.75,5.68,1.76,1.37,4.31,1.05,5.68-.75,0,0,6.44-8.33,18.71-22.37,9.08-10.35,21.29-23.81,36.35-39.12.1.09.21.2.31.29,3.89,3.13,8.16,5.45,12.64,6.96-28.22,30.93-44.02,51.93-44.02,51.93l-.04.04v.03c-1.34,1.8-.95,4.34.88,5.68,1.79,1.3,4.3.91,5.65-.88,0,0,5.94-8.1,17.21-21.88,7.32-8.92,16.89-20.18,28.41-33.08,13.42,1.6,27.34-3.53,36.48-14.79,0,0,.98-1.21,2.77-3.43.98-1.21,2.25-2.71,3.76-4.47,22.05,24.1,50.72,41.18,83.15,49.09,8.52,2.06,17.11,3.46,25.7,4.21,34.91,2.97,69.76-5.13,100.27-23.68,2.22-1.34,4.34-2.74,6.47-4.18h.04c1.96,3.07,3.85,6.08,5.68,9.02,11.66,18.71,20.54,34.75,26.39,45.95,2.94,5.58,5.16,10.03,6.56,12.93,1.31,2.84,2.02,4.34,2.02,4.34l.16.39c.72,1.5,1.57,2.97,2.52,4.41,10.94,16.43,33.12,20.87,49.55,9.93,16.43-10.91,20.9-33.12,9.96-49.55,0,0-1.21-1.79-3.43-5.13-2.19-3.27-5.39-7.81-9.54-13.52-8.26-11.36-20.35-27.17-35.69-45.3-3.85-4.54-7.91-9.24-12.18-14.05,37.98-52.65,43.17-125.15,7.38-184.04-.06-.09-.1-.16-.16-.26,4.63-2.02,9.27-3.76,13.78-5.62,5.29-2.19,10.52-4.05,15.55-5.78"/>
      </g>
      <g id="text513160-3" class="cls-7">
        <g class="cls-7">
          <path class="cls-4" d="M27.94,377.87c-8.42,0-15.19-2.69-20.29-8.08-5.1-5.39-7.65-12.11-7.65-20.17v-.16c0-7.74,2.58-14.41,7.77-20.01,5.18-5.6,11.77-8.4,19.77-8.4,4.4,0,8.18.6,11.34,1.81s6.22,3.04,9.14,5.49l-4,4.71c-4.71-4.18-10.28-6.28-16.72-6.28-5.96,0-10.93,2.19-14.91,6.59s-5.96,9.71-5.96,15.93v.16c0,6.65,1.98,12.11,5.92,16.4,3.95,4.29,9.22,6.44,15.82,6.44,6.07,0,11.36-1.83,15.86-5.49v-13.66h-16.72v-5.57h22.68v21.9c-6.17,5.6-13.53,8.4-22.05,8.4Z"/>
          <path class="cls-4" d="M78.87,377.87c-6.02,0-11.03-2.05-15.03-6.16-4-4.11-6-9.06-6-14.87v-.16c0-5.86,2.01-10.85,6.04-14.99,4.03-4.13,9.07-6.2,15.15-6.2s11.04,2.05,15.07,6.16c4.03,4.11,6.04,9.06,6.04,14.87v.16c0,5.86-2.03,10.86-6.09,14.99s-9.11,6.2-15.19,6.2ZM79.03,372.46c4.29,0,7.85-1.51,10.67-4.55,2.82-3.03,4.24-6.72,4.24-11.07v-.16c0-4.39-1.45-8.13-4.36-11.22-2.91-3.09-6.48-4.63-10.71-4.63s-7.84,1.53-10.63,4.59c-2.8,3.06-4.2,6.76-4.2,11.1v.16c0,4.4,1.44,8.12,4.31,11.18,2.88,3.06,6.43,4.59,10.67,4.59Z"/>
          <path class="cls-4" d="M130.44,376.93v-54.94h39.48v5.73h-33.28v19.62h29.74v5.65h-29.74v23.94h-6.2Z"/>
          <path class="cls-4" d="M188.44,377.8c-4.08,0-7.63-1.11-10.64-3.34-3.01-2.22-4.51-5.32-4.51-9.3v-.15c0-4.13,1.59-7.35,4.75-9.65,3.17-2.3,7.36-3.45,12.6-3.45,4.14,0,8.29.57,12.48,1.73v-1.41c0-3.61-1.05-6.36-3.14-8.24-2.09-1.88-5.07-2.82-8.94-2.82-4.08,0-8.19.99-12.33,2.98l-1.81-4.94c4.77-2.25,9.68-3.37,14.76-3.37,5.76,0,10.13,1.49,13.11,4.47,2.78,2.78,4.16,6.72,4.16,11.85v24.8h-5.81v-6.12c-3.56,4.66-8.45,6.99-14.67,6.99ZM189.62,373.01c3.82,0,7.04-1.03,9.65-3.1,2.61-2.07,3.92-4.69,3.92-7.89v-3.92c-4.08-1.15-8.06-1.73-11.93-1.73s-6.69.76-8.75,2.28-3.1,3.56-3.1,6.12v.16c0,2.46.99,4.42,2.98,5.88,1.99,1.47,4.4,2.2,7.22,2.2Z"/>
          <path class="cls-4" d="M232.63,377.72c-6.23,0-11.83-1.99-16.79-5.97l3.06-4.32c4.5,3.45,9.18,5.18,14.05,5.18,2.51,0,4.54-.57,6.08-1.73,1.55-1.15,2.32-2.72,2.32-4.71v-.16c0-1.83-.86-3.24-2.59-4.24-1.72-.99-4.24-1.96-7.54-2.9-1.46-.42-2.54-.75-3.21-.98-.68-.24-1.68-.62-2.98-1.14-1.31-.52-2.29-1.03-2.95-1.53-.66-.5-1.36-1.12-2.12-1.88-.76-.76-1.31-1.63-1.65-2.63-.34-.99-.51-2.09-.51-3.3v-.16c0-3.45,1.29-6.25,3.88-8.4,2.59-2.14,5.89-3.22,9.93-3.22,5.23,0,10.1,1.49,14.6,4.47l-2.75,4.55c-4.03-2.62-8.03-3.92-12.01-3.92-2.36,0-4.25.55-5.69,1.65-1.44,1.1-2.16,2.51-2.16,4.24v.16c0,.73.21,1.41.63,2.04.42.63.89,1.15,1.41,1.57.53.42,1.35.86,2.48,1.33,1.12.47,2.02.81,2.71,1.02.68.21,1.75.55,3.22,1.02,1.51.47,2.78.89,3.8,1.25s2.17.88,3.45,1.53c1.29.65,2.3,1.36,3.06,2.12s1.4,1.71,1.92,2.86c.53,1.15.79,2.43.79,3.85v.16c0,3.77-1.36,6.74-4.08,8.91s-6.17,3.26-10.36,3.26Z"/>
          <path class="cls-4" d="M268.5,377.64c-3.51,0-6.29-.93-8.36-2.79-2.07-1.86-3.1-4.75-3.1-8.67v-24.49h-5.65v-5.34h5.65v-12.24h6.04v12.24h12.87v5.34h-12.87v23.7c0,4.5,2.28,6.75,6.83,6.75,1.98,0,3.95-.47,5.88-1.42v5.18c-2.09,1.15-4.53,1.73-7.3,1.73Z"/>
          <path class="cls-4" d="M281.84,386.51l-.94-2.75c3.82-1.41,5.57-3.69,5.26-6.83h-2.82v-8.24h7.22v7.06c0,3.14-.7,5.55-2.08,7.22-1.39,1.67-3.6,2.85-6.63,3.53Z"/>
        </g>
      </g>
      <g id="path555078-4">
        <path class="cls-1" d="M418.21,364.84c-24.62,0-45.17-7.12-61.3-21.28-.91-.8-1.82-1.63-2.71-2.48l-2.21-2.11,4.22-4.41,2.2,2.11c.83.79,1.68,1.57,2.52,2.3,20.28,17.81,47.09,23.54,81.96,17.52l3.01-.52,1.04,6.02-3.01.52c-9.01,1.56-17.59,2.33-25.73,2.33Z"/>
      </g>
      <g id="path34875-8">
        <path class="cls-3" d="M332.42,378.59c10.2,0,18.47-3.77,24.41-8.67v-25.29h-25.85v11.4h11.08v6.82c-2.33,1.53-5.22,2.33-8.99,2.33-8.91,0-15.26-6.5-15.26-15.58v-.16c0-8.59,6.26-15.42,14.37-15.42,5.54,0,8.72,1.51,12.74,4.88l9.99-10.58c-5.94-5.14-12.93-8.19-22.8-8.19-17.42,0-30.27,12.85-30.27,29.23v.16c0,17.02,13.09,29.07,30.59,29.07h0Z"/>
      </g>
      <g id="path34877-6">
        <path class="cls-3" d="M384.06,378.51c13.97,0,24.09-10.36,24.09-22.72v-.16c0-12.37-10.04-22.56-23.93-22.56s-24.09,10.36-24.09,22.72v.16c0,12.37,10.04,22.56,23.93,22.56ZM384.22,365.59c-5.38,0-9.23-4.5-9.23-9.8v-.16c0-5.22,3.54-9.64,9.07-9.64s9.23,4.5,9.23,9.8v.16c0,5.22-3.54,9.64-9.07,9.64h0Z"/>
      </g>
      <g id="path34879-6">
        <path class="cls-3" d="M432.26,377.47h28.99c13.41,0,21.28-5.86,21.28-15.5v-.16c0-7.63-4.34-11.48-11.16-13.73,4.98-2.17,8.67-6.02,8.67-12.53v-.16c0-3.85-1.37-6.82-3.61-9.07-3.3-3.29-8.27-5.06-15.34-5.06h-28.83v56.21ZM447.44,343.67v-9.88h10.12c4.65,0,7.07,1.77,7.07,4.82v.16c0,3.29-2.65,4.9-7.39,4.9h-9.8ZM447.44,364.94v-10.36h11.88c5.22,0,7.63,2.01,7.63,5.06v.16c0,3.29-2.73,5.14-7.47,5.14h-12.04Z"/>
      </g>
      <g id="path34883-1">
        <path class="cls-3" d="M542.77,390.56c8.67,0,12.77-4.01,16.54-14.13l15.9-42.39h-15.66l-8.19,26.18-8.67-26.18h-15.98l17.02,42.64c-.96,1.37-2.01,1.77-3.53,1.77-1.69,0-4.26-.88-6.66-2.33l-4.74,10.68c4.02,2.25,8.59,3.77,13.97,3.77h0Z"/>
      </g>
      <g id="path34885-7">
        <path class="cls-3" d="M597.22,378.51c13.97,0,24.09-10.36,24.09-22.72v-.16c0-12.37-10.04-22.56-23.93-22.56s-24.09,10.36-24.09,22.72v.16c0,12.37,10.04,22.56,23.93,22.56h0ZM597.38,365.59c-5.38,0-9.23-4.5-9.23-9.8v-.16c0-5.22,3.54-9.64,9.07-9.64s9.23,4.5,9.23,9.8v.16c0,5.22-3.53,9.64-9.07,9.64Z"/>
      </g>
      <g id="path34887-1">
        <path class="cls-3" d="M625.02,377.47h15.26v-23.53c0-4.74,2.73-7.31,6.42-7.31s6.1,2.57,6.1,7.31v23.53h15.26v-28.42c0-9.88-5.54-15.98-14.77-15.98-6.18,0-10.2,3.45-13.01,7.07v-6.1h-15.26v43.44Z"/>
      </g>
      <g id="path550062-4">
        <path class="cls-5" d="M564.1,399.88c-1.63,0-3.21-.67-4.56-1.95-1.57-1.5-2.73-3.73-3.48-6.64-17.49-6.21-58.7-14.4-93.44-13.02l-6.93.25c-2.96.1-5.59.19-7.9.32-5.89,6.06-12.92,11.08-16.66,11.09h-.03c-2.82,0-4.73-2.01-4.77-5-.1-9.09,7.08-11.27,18.72-12.07.86-.96,1.7-1.94,2.48-2.95,3.27-4.18,3.97-6.55,3.99-7.3-.1.04-.48-.05-1.1-.06l-3.06-.03.06-6.12,3.06.03c5.29.06,7.16,3.22,7.15,6.15,0,2.68-1.78,6.23-4.44,9.89.75-.02,1.52-.05,2.29-.08l6.89-.25c30.09-1.23,70.92,4.93,92.71,12.41-.69-12.23,2.83-31,10.37-53.96,3.22-7.72,8.07-12.73,14.5-15.1,17.08-6.3,42.61,6.55,72.15,21.43,41.69,21.02,88.94,44.86,122.19,19.14l2.42-1.87,3.75,4.84-2.42,1.87c-36.27,28.07-85.37,3.32-128.69-18.52-27.08-13.65-52.66-26.56-67.27-21.16-4.83,1.78-8.4,5.55-10.89,11.49-10.22,31.18-10.74,46.91-9.7,54.31,5.1,2.27,8.26,4.6,8.72,6.83.18.9.44,3.95-3.89,5.59-.73.28-1.47.41-2.21.41ZM437.54,379.96c-2.87.67-4.37,1.69-4.9,3.33,1.26-.63,2.98-1.79,4.9-3.33Z"/>
      </g>
      <g id="path34881-0">
        <path class="cls-3" d="M507.59,378.51c8.67,0,14.69-3.53,18.87-8.83l-8.43-6.99c-3.13,3.05-6.02,4.42-9.64,4.42-4.74,0-8.19-2.41-9.39-7.15h29.07c.1-1.04.1-2.17.1-3.13,0-12.77-6.91-23.77-21.92-23.77-12.85,0-21.92,10.04-21.92,22.72v.16c0,13.49,9.63,22.56,23.28,22.56h-.02ZM498.76,352.18c.81-4.74,3.53-7.87,7.55-7.87s6.99,3.05,7.55,7.87h-15.09Z"/>
      </g>
      <g class="cls-8">
        <g id="path34999-1">
          <path class="cls-3" d="M542.77,390.56c8.67,0,12.77-4.01,16.54-14.13l15.9-42.39h-15.66l-8.19,26.18-8.67-26.18h-15.98l17.02,42.64c-.96,1.36-2.01,1.77-3.53,1.77-1.69,0-4.26-.88-6.66-2.33l-4.74,10.68c4.01,2.25,8.59,3.77,13.97,3.77h0Z"/>
        </g>
      </g>
      <g id="path34889-1">
        <path class="cls-3" d="M690.79,378.43c6.5,0,10.28-3.13,13.25-6.74v5.78h15.26v-58.61h-15.26v20.47c-2.89-3.29-6.74-6.26-13.33-6.26-10.28,0-19.11,8.59-19.11,22.72v.16c0,13.89,8.91,22.48,19.19,22.48h0ZM695.45,365.67c-4.9,0-8.91-4.1-8.91-9.88v-.16c0-5.78,4.02-9.8,8.91-9.8s8.83,4.1,8.83,9.8v.16c0,5.78-3.93,9.88-8.83,9.88Z"/>
      </g>
      <g id="path1533">
        <path class="cls-3" d="M625.02,377.47h15.26v-43.44h-15.26v43.44Z"/>
      </g>
    </g>
  </g>
</svg>