<svg width="1385" height="488" viewBox="0 0 1385 488" fill="none" xmlns="http://www.w3.org/2000/svg">
<path fill-rule="evenodd" clip-rule="evenodd" d="M347.71 233.204C347.71 233.204 263.482 172.743 172.775 168.425C82.0681 164.106 0 239.681 0 239.681C0 239.681 85.5918 248.319 177.094 323.894C188.554 333.358 199.352 342.852 209.49 352.241L347.71 233.204Z" fill="#FC4C02"/>
<path fill-rule="evenodd" clip-rule="evenodd" d="M431.938 129.558C403.45 174.655 345.55 231.044 345.55 231.044L207.33 350.082C285.079 422.094 323.953 488 323.953 488C323.953 488 529.123 354.124 552.88 185.699C570.158 45.3454 492.409 0 492.409 0C492.409 0 492.409 41.0266 431.938 129.558Z" fill="#A6192E"/>
<path d="M675.381 113.348C701.218 113.348 721.011 117.985 734.758 127.258C748.505 136.366 755.378 150.607 755.378 169.982C755.378 182.07 752.563 191.923 746.931 199.54C741.466 206.992 733.516 212.871 723.081 217.176C726.559 221.482 730.203 226.45 734.012 232.08C737.822 237.545 741.548 243.341 745.192 249.468C749.002 255.429 752.645 261.722 756.123 268.345C759.602 274.804 762.831 281.179 765.813 287.472H722.336C719.189 281.842 715.959 276.128 712.647 270.333C709.5 264.537 706.187 258.907 702.709 253.442C699.397 247.977 696.084 242.844 692.772 238.041C689.459 233.074 686.147 228.602 682.834 224.628H663.704V287.472H624.948V117.819C633.395 116.163 642.09 115.004 651.034 114.342C660.143 113.679 668.259 113.348 675.381 113.348ZM677.617 146.384C674.801 146.384 672.234 146.467 669.915 146.633C667.762 146.798 665.692 146.964 663.704 147.129V193.827H674.635C689.211 193.827 699.645 192.006 705.939 188.363C712.233 184.72 715.379 178.51 715.379 169.733C715.379 161.288 712.15 155.326 705.69 151.849C699.397 148.206 690.039 146.384 677.617 146.384Z" fill="#101820"/>
<path d="M775.651 223.138C775.651 211.546 777.39 201.445 780.868 192.834C784.512 184.057 789.232 176.771 795.029 170.975C800.826 165.179 807.451 160.791 814.904 157.81C822.523 154.83 830.308 153.339 838.258 153.339C856.808 153.339 871.466 159.052 882.231 170.478C892.997 181.739 898.38 198.381 898.38 220.406C898.38 222.558 898.297 224.959 898.132 227.609C897.966 230.093 897.8 232.328 897.635 234.316H813.662C814.49 241.933 818.051 247.977 824.345 252.448C830.639 256.919 839.086 259.155 849.686 259.155C856.477 259.155 863.102 258.575 869.561 257.416C876.186 256.091 881.569 254.518 885.71 252.697L890.678 282.752C888.691 283.746 886.041 284.739 882.728 285.733C879.416 286.727 875.689 287.555 871.549 288.217C867.574 289.045 863.267 289.707 858.63 290.204C853.992 290.701 849.355 290.949 844.717 290.949C832.958 290.949 822.689 289.211 813.911 285.733C805.298 282.256 798.093 277.536 792.297 271.575C786.665 265.448 782.442 258.244 779.626 249.964C776.976 241.685 775.651 232.742 775.651 223.138ZM862.605 208.979C862.439 205.833 861.859 202.77 860.866 199.789C860.038 196.808 858.63 194.159 856.642 191.84C854.82 189.522 852.419 187.618 849.437 186.127C846.622 184.637 843.061 183.892 838.755 183.892C834.614 183.892 831.053 184.637 828.072 186.127C825.091 187.452 822.606 189.274 820.619 191.592C818.631 193.91 817.058 196.643 815.898 199.789C814.904 202.77 814.159 205.833 813.662 208.979H862.605Z" fill="#101820"/>
<path d="M998.745 218.17C998.745 206.247 997.172 197.802 994.025 192.834C991.044 187.866 985.827 185.382 978.373 185.382C976.055 185.382 973.653 185.548 971.169 185.879C968.684 186.044 966.283 186.293 963.964 186.624V287.472H926.947V161.288C930.093 160.46 933.737 159.632 937.878 158.804C942.184 157.81 946.656 156.982 951.294 156.32C956.097 155.492 960.983 154.912 965.952 154.581C970.92 154.084 975.806 153.836 980.609 153.836C990.05 153.836 997.669 155.078 1003.47 157.562C1009.43 159.88 1014.31 162.695 1018.12 166.007C1023.42 162.199 1029.47 159.218 1036.26 157.065C1043.22 154.912 1049.59 153.836 1055.39 153.836C1065.82 153.836 1074.35 155.326 1080.98 158.307C1087.77 161.122 1093.15 165.179 1097.13 170.478C1101.1 175.778 1103.84 182.07 1105.33 189.356C1106.82 196.643 1107.56 204.757 1107.56 213.699V287.472H1070.54V218.17C1070.54 206.247 1068.97 197.802 1065.82 192.834C1062.84 187.866 1057.63 185.382 1050.17 185.382C1048.18 185.382 1045.37 185.879 1041.73 186.872C1038.25 187.866 1035.35 189.108 1033.03 190.598C1034.19 194.407 1034.93 198.464 1035.27 202.77C1035.6 206.909 1035.76 211.381 1035.76 216.183V287.472H998.745V218.17Z" fill="#101820"/>
<path d="M1263.41 221.896C1263.41 232.163 1261.92 241.602 1258.94 250.213C1255.96 258.658 1251.65 265.944 1246.02 272.071C1240.39 278.033 1233.6 282.669 1225.65 285.981C1217.86 289.293 1209.08 290.949 1199.31 290.949C1189.71 290.949 1180.93 289.293 1172.98 285.981C1165.19 282.669 1158.48 278.033 1152.85 272.071C1147.22 265.944 1142.83 258.658 1139.69 250.213C1136.54 241.602 1134.97 232.163 1134.97 221.896C1134.97 211.629 1136.54 202.273 1139.69 193.827C1143 185.382 1147.47 178.179 1153.1 172.217C1158.9 166.256 1165.69 161.619 1173.47 158.307C1181.42 154.995 1190.04 153.339 1199.31 153.339C1208.75 153.339 1217.36 154.995 1225.15 158.307C1233.1 161.619 1239.89 166.256 1245.52 172.217C1251.15 178.179 1255.54 185.382 1258.69 193.827C1261.84 202.273 1263.41 211.629 1263.41 221.896ZM1225.65 221.896C1225.65 210.47 1223.33 201.528 1218.69 195.069C1214.22 188.446 1207.76 185.134 1199.31 185.134C1190.86 185.134 1184.32 188.446 1179.68 195.069C1175.05 201.528 1172.73 210.47 1172.73 221.896C1172.73 233.322 1175.05 242.43 1179.68 249.219C1184.32 255.843 1190.86 259.155 1199.31 259.155C1207.76 259.155 1214.22 255.843 1218.69 249.219C1223.33 242.43 1225.65 233.322 1225.65 221.896Z" fill="#101820"/>
<path d="M1329.6 260.894C1336.39 260.894 1341.19 260.231 1344.01 258.907C1346.82 257.582 1348.23 255.015 1348.23 251.206C1348.23 248.226 1346.41 245.659 1342.77 243.506C1339.12 241.188 1333.57 238.621 1326.12 235.806C1320.32 233.653 1315.02 231.418 1310.22 229.099C1305.58 226.781 1301.61 224.049 1298.29 220.902C1294.98 217.59 1292.42 213.699 1290.59 209.228C1288.77 204.757 1287.86 199.375 1287.86 193.082C1287.86 180.828 1292.42 171.141 1301.52 164.02C1310.63 156.9 1323.14 153.339 1339.04 153.339C1346.99 153.339 1354.61 154.084 1361.9 155.575C1369.18 156.9 1374.98 158.39 1379.29 160.046L1372.83 188.86C1368.52 187.369 1363.8 186.044 1358.67 184.885C1353.7 183.726 1348.07 183.147 1341.77 183.147C1330.18 183.147 1324.38 186.376 1324.38 192.834C1324.38 194.324 1324.63 195.649 1325.13 196.808C1325.62 197.967 1326.62 199.126 1328.11 200.286C1329.6 201.279 1331.59 202.438 1334.07 203.763C1336.72 204.922 1340.03 206.247 1344.01 207.737C1352.12 210.718 1358.83 213.699 1364.13 216.68C1369.43 219.495 1373.57 222.641 1376.55 226.119C1379.7 229.43 1381.85 233.156 1383.01 237.296C1384.34 241.436 1385 246.238 1385 251.703C1385 264.62 1380.11 274.39 1370.34 281.014C1360.74 287.637 1347.07 290.949 1329.35 290.949C1317.76 290.949 1308.07 289.956 1300.28 287.969C1292.66 285.981 1287.36 284.325 1284.38 283.001L1290.59 252.945C1296.89 255.429 1303.35 257.416 1309.97 258.907C1316.6 260.231 1323.14 260.894 1329.6 260.894Z" fill="#101820"/>
<path d="M625.854 414.053C630.55 414.053 634.202 413.213 636.811 411.532C639.419 409.793 640.724 407.011 640.724 403.186C640.724 400.983 640.289 399.158 639.419 397.709C638.608 396.202 637.506 394.956 636.115 393.97C634.724 392.927 633.13 392.058 631.333 391.362C629.536 390.609 627.652 389.826 625.681 389.015C623.188 388.03 620.956 387.015 618.985 385.972C617.014 384.929 615.333 383.77 613.942 382.495C612.551 381.162 611.478 379.655 610.725 377.974C610.029 376.293 609.681 374.323 609.681 372.062C609.681 366.904 611.391 362.992 614.811 360.326C618.232 357.659 622.985 356.326 629.072 356.326C630.695 356.326 632.289 356.442 633.854 356.674C635.419 356.906 636.869 357.225 638.202 357.631C639.593 357.978 640.839 358.384 641.941 358.848C643.1 359.311 644.057 359.804 644.81 360.326L642.724 365.281C641.042 364.122 638.984 363.195 636.55 362.499C634.173 361.804 631.593 361.456 628.811 361.456C626.898 361.456 625.13 361.659 623.507 362.064C621.942 362.412 620.579 363.021 619.42 363.89C618.261 364.701 617.333 365.745 616.637 367.02C616 368.295 615.681 369.831 615.681 371.627C615.681 373.482 616.029 375.047 616.724 376.322C617.42 377.597 618.376 378.698 619.594 379.626C620.869 380.553 622.347 381.393 624.028 382.147C625.71 382.9 627.536 383.683 629.507 384.494C631.883 385.48 634.115 386.465 636.202 387.45C638.347 388.435 640.202 389.595 641.767 390.928C643.332 392.261 644.579 393.884 645.506 395.796C646.434 397.709 646.897 400.056 646.897 402.838C646.897 408.286 644.984 412.372 641.158 415.096C637.39 417.82 632.26 419.182 625.768 419.182C623.449 419.182 621.333 419.037 619.42 418.748C617.507 418.458 615.797 418.11 614.29 417.704C612.782 417.241 611.507 416.777 610.464 416.313C609.42 415.85 608.609 415.444 608.029 415.096L609.942 409.967C610.522 410.315 611.304 410.72 612.29 411.184C613.275 411.648 614.435 412.111 615.768 412.575C617.101 412.981 618.608 413.329 620.289 413.618C621.971 413.908 623.826 414.053 625.854 414.053Z" fill="#101820"/>
<path d="M654.775 395.361C654.775 391.42 655.326 388.001 656.428 385.103C657.587 382.147 659.065 379.684 660.862 377.713C662.717 375.743 664.804 374.294 667.123 373.366C669.5 372.381 671.934 371.888 674.427 371.888C679.934 371.888 684.311 373.685 687.557 377.278C690.861 380.872 692.513 386.407 692.513 393.884C692.513 394.347 692.484 394.811 692.426 395.275C692.426 395.738 692.397 396.173 692.339 396.579H660.775C660.949 402.085 662.311 406.316 664.862 409.271C667.413 412.227 671.471 413.705 677.036 413.705C680.108 413.705 682.543 413.416 684.34 412.836C686.137 412.256 687.441 411.764 688.253 411.358L689.296 416.227C688.484 416.69 686.948 417.241 684.687 417.878C682.485 418.516 679.876 418.835 676.862 418.835C672.92 418.835 669.558 418.255 666.775 417.096C663.993 415.937 661.703 414.314 659.906 412.227C658.109 410.141 656.804 407.678 655.993 404.838C655.181 401.94 654.775 398.781 654.775 395.361ZM686.687 391.797C686.571 387.102 685.47 383.451 683.383 380.843C681.296 378.235 678.34 376.931 674.514 376.931C672.485 376.931 670.659 377.336 669.036 378.148C667.471 378.959 666.079 380.06 664.862 381.451C663.703 382.784 662.775 384.349 662.08 386.146C661.442 387.943 661.065 389.826 660.949 391.797H686.687Z" fill="#101820"/>
<path d="M720.412 372.062C722.267 372.062 724.007 372.207 725.63 372.497C727.311 372.787 728.47 373.076 729.108 373.366L727.977 378.235C727.514 378.003 726.557 377.771 725.108 377.539C723.717 377.249 721.862 377.105 719.543 377.105C717.108 377.105 715.137 377.278 713.63 377.626C712.181 377.974 711.224 378.264 710.761 378.496V417.878H705.109V375.018C706.558 374.38 708.558 373.743 711.108 373.105C713.659 372.41 716.76 372.062 720.412 372.062Z" fill="#101820"/>
<path d="M753.064 411.793C754.282 409.3 755.528 406.461 756.803 403.273C758.079 400.027 759.296 396.694 760.455 393.275C761.673 389.797 762.774 386.32 763.76 382.842C764.803 379.307 765.673 376.003 766.368 372.932H772.02C770.977 377.047 769.817 381.104 768.542 385.103C767.267 389.102 765.904 393.014 764.455 396.839C763.064 400.665 761.586 404.345 760.021 407.88C758.513 411.416 757.035 414.749 755.586 417.878H750.195C748.688 414.749 747.18 411.416 745.673 407.88C744.166 404.345 742.688 400.665 741.239 396.839C739.847 393.014 738.514 389.102 737.239 385.103C735.963 381.104 734.804 377.047 733.761 372.932H739.76C740.456 376.003 741.297 379.307 742.282 382.842C743.325 386.32 744.427 389.797 745.586 393.275C746.804 396.694 748.05 400.027 749.325 403.273C750.601 406.461 751.847 409.3 753.064 411.793Z" fill="#101820"/>
<path d="M786.93 417.878H781.278V372.932H786.93V417.878ZM788.234 359.369C788.234 360.702 787.828 361.775 787.017 362.586C786.205 363.339 785.22 363.716 784.061 363.716C782.901 363.716 781.916 363.339 781.104 362.586C780.293 361.775 779.887 360.702 779.887 359.369C779.887 358.036 780.293 356.993 781.104 356.239C781.916 355.428 782.901 355.022 784.061 355.022C785.22 355.022 786.205 355.428 787.017 356.239C787.828 356.993 788.234 358.036 788.234 359.369Z" fill="#101820"/>
<path d="M820.521 418.835C817.042 418.835 813.97 418.284 811.304 417.183C808.637 416.082 806.405 414.517 804.608 412.488C802.869 410.402 801.536 407.938 800.608 405.098C799.681 402.201 799.217 399.013 799.217 395.535C799.217 392 799.681 388.783 800.608 385.885C801.594 382.987 802.985 380.495 804.782 378.409C806.579 376.322 808.753 374.728 811.304 373.627C813.854 372.468 816.724 371.888 819.912 371.888C822.347 371.888 824.607 372.091 826.694 372.497C828.839 372.903 830.491 373.424 831.651 374.062L830.172 378.93C829.013 378.351 827.709 377.887 826.259 377.539C824.81 377.191 822.868 377.018 820.434 377.018C815.448 377.018 811.651 378.64 809.043 381.886C806.492 385.074 805.217 389.624 805.217 395.535C805.217 398.201 805.507 400.665 806.086 402.925C806.666 405.127 807.594 407.04 808.869 408.663C810.202 410.228 811.883 411.474 813.912 412.401C815.999 413.271 818.521 413.705 821.477 413.705C823.912 413.705 825.941 413.445 827.564 412.923C829.245 412.343 830.462 411.851 831.216 411.445L832.433 416.313C831.39 416.893 829.738 417.444 827.477 417.965C825.274 418.545 822.955 418.835 820.521 418.835Z" fill="#101820"/>
<path d="M839.212 395.361C839.212 391.42 839.763 388.001 840.864 385.103C842.024 382.147 843.502 379.684 845.299 377.713C847.154 375.743 849.241 374.294 851.56 373.366C853.936 372.381 856.371 371.888 858.864 371.888C864.371 371.888 868.747 373.685 871.994 377.278C875.298 380.872 876.95 386.407 876.95 393.884C876.95 394.347 876.921 394.811 876.863 395.275C876.863 395.738 876.834 396.173 876.776 396.579H845.212C845.386 402.085 846.748 406.316 849.299 409.271C851.849 412.227 855.907 413.705 861.472 413.705C864.545 413.705 866.979 413.416 868.776 412.836C870.573 412.256 871.878 411.764 872.689 411.358L873.733 416.227C872.921 416.69 871.385 417.241 869.124 417.878C866.921 418.516 864.313 418.835 861.298 418.835C857.357 418.835 853.994 418.255 851.212 417.096C848.429 415.937 846.139 414.314 844.342 412.227C842.545 410.141 841.241 407.678 840.43 404.838C839.618 401.94 839.212 398.781 839.212 395.361ZM871.124 391.797C871.008 387.102 869.907 383.451 867.82 380.843C865.733 378.235 862.777 376.931 858.951 376.931C856.922 376.931 855.096 377.336 853.473 378.148C851.907 378.959 850.516 380.06 849.299 381.451C848.139 382.784 847.212 384.349 846.516 386.146C845.879 387.943 845.502 389.826 845.386 391.797H871.124Z" fill="#101820"/>
<path d="M898.763 413.879C902.009 413.879 904.675 413.358 906.762 412.314C908.907 411.213 909.98 409.387 909.98 406.837C909.98 405.62 909.777 404.577 909.371 403.707C909.023 402.838 908.414 402.056 907.545 401.36C906.675 400.665 905.516 399.998 904.067 399.361C902.676 398.723 900.936 397.97 898.849 397.1C897.168 396.405 895.574 395.709 894.067 395.014C892.56 394.26 891.227 393.42 890.067 392.493C888.908 391.507 887.98 390.348 887.285 389.015C886.589 387.682 886.241 386.059 886.241 384.147C886.241 380.495 887.604 377.539 890.328 375.279C893.111 373.018 896.908 371.888 901.719 371.888C904.791 371.888 907.313 372.149 909.284 372.671C911.313 373.192 912.733 373.656 913.545 374.062L912.24 379.104C911.545 378.756 910.356 378.293 908.675 377.713C907.052 377.134 904.646 376.844 901.458 376.844C900.183 376.844 898.965 376.989 897.806 377.278C896.705 377.51 895.719 377.916 894.85 378.496C893.98 379.017 893.284 379.713 892.763 380.582C892.241 381.393 891.98 382.408 891.98 383.625C891.98 384.842 892.212 385.885 892.676 386.755C893.139 387.624 893.806 388.406 894.676 389.102C895.603 389.74 896.705 390.348 897.98 390.928C899.313 391.507 900.82 392.145 902.502 392.84C904.241 393.536 905.893 394.26 907.458 395.014C909.081 395.709 910.501 396.579 911.719 397.622C912.936 398.607 913.921 399.824 914.675 401.273C915.429 402.664 915.806 404.432 915.806 406.576C915.806 410.634 914.269 413.705 911.197 415.792C908.183 417.878 904.038 418.922 898.763 418.922C894.821 418.922 891.806 418.574 889.719 417.878C887.632 417.241 886.241 416.748 885.546 416.4L887.024 411.271C887.198 411.387 887.574 411.59 888.154 411.88C888.734 412.111 889.516 412.401 890.502 412.749C891.487 413.039 892.647 413.3 893.98 413.531C895.371 413.763 896.966 413.879 898.763 413.879Z" fill="#101820"/>
<path d="M959.828 414.053C964.523 414.053 968.175 413.213 970.784 411.532C973.393 409.793 974.697 407.011 974.697 403.186C974.697 400.983 974.262 399.158 973.393 397.709C972.581 396.202 971.48 394.956 970.088 393.97C968.697 392.927 967.103 392.058 965.306 391.362C963.509 390.609 961.625 389.826 959.654 389.015C957.161 388.03 954.929 387.015 952.958 385.972C950.988 384.929 949.306 383.77 947.915 382.495C946.524 381.162 945.451 379.655 944.698 377.974C944.002 376.293 943.654 374.323 943.654 372.062C943.654 366.904 945.364 362.992 948.785 360.326C952.205 357.659 956.958 356.326 963.045 356.326C964.668 356.326 966.262 356.442 967.828 356.674C969.393 356.906 970.842 357.225 972.175 357.631C973.566 357.978 974.813 358.384 975.914 358.848C977.074 359.311 978.03 359.804 978.784 360.326L976.697 365.281C975.016 364.122 972.958 363.195 970.523 362.499C968.146 361.804 965.567 361.456 962.784 361.456C960.871 361.456 959.103 361.659 957.48 362.064C955.915 362.412 954.553 363.021 953.393 363.89C952.234 364.701 951.306 365.745 950.611 367.02C949.973 368.295 949.654 369.831 949.654 371.627C949.654 373.482 950.002 375.047 950.698 376.322C951.393 377.597 952.35 378.698 953.567 379.626C954.842 380.553 956.321 381.393 958.002 382.147C959.683 382.9 961.509 383.683 963.48 384.494C965.857 385.48 968.088 386.465 970.175 387.45C972.32 388.435 974.175 389.595 975.74 390.928C977.305 392.261 978.552 393.884 979.479 395.796C980.407 397.709 980.871 400.056 980.871 402.838C980.871 408.286 978.958 412.372 975.132 415.096C971.364 417.82 966.233 419.182 959.741 419.182C957.422 419.182 955.306 419.037 953.393 418.748C951.48 418.458 949.77 418.11 948.263 417.704C946.756 417.241 945.48 416.777 944.437 416.313C943.394 415.85 942.582 415.444 942.002 415.096L943.915 409.967C944.495 410.315 945.278 410.72 946.263 411.184C947.248 411.648 948.408 412.111 949.741 412.575C951.074 412.981 952.582 413.329 954.263 413.618C955.944 413.908 957.799 414.053 959.828 414.053Z" fill="#101820"/>
<path d="M1032.31 417.878C1031.21 414.922 1030.17 412.082 1029.18 409.358C1028.2 406.634 1027.24 403.968 1026.31 401.36H997.009C996.024 403.968 995.038 406.634 994.053 409.358C993.067 412.082 992.053 414.922 991.009 417.878H984.836C987.155 411.619 989.328 405.794 991.357 400.404C993.386 394.956 995.357 389.826 997.27 385.016C999.241 380.147 1001.18 375.482 1003.1 371.019C1005.01 366.556 1007.04 362.093 1009.18 357.631H1014.4C1016.54 362.093 1018.57 366.556 1020.49 371.019C1022.4 375.482 1024.31 380.147 1026.23 385.016C1028.2 389.826 1030.2 394.956 1032.23 400.404C1034.25 405.794 1036.46 411.619 1038.83 417.878H1032.31ZM1011.62 364.412C1009.41 369.396 1007.27 374.467 1005.18 379.626C1003.15 384.784 1001.04 390.348 998.835 396.318H1024.49C1022.28 390.348 1020.14 384.784 1018.05 379.626C1015.97 374.467 1013.82 369.396 1011.62 364.412Z" fill="#101820"/>
<path d="M1061.81 414.053C1066.51 414.053 1070.16 413.213 1072.77 411.532C1075.38 409.793 1076.68 407.011 1076.68 403.186C1076.68 400.983 1076.25 399.158 1075.38 397.709C1074.56 396.202 1073.46 394.956 1072.07 393.97C1070.68 392.927 1069.09 392.058 1067.29 391.362C1065.49 390.609 1063.61 389.826 1061.64 389.015C1059.14 388.03 1056.91 387.015 1054.94 385.972C1052.97 384.929 1051.29 383.77 1049.9 382.495C1048.51 381.162 1047.44 379.655 1046.68 377.974C1045.99 376.293 1045.64 374.323 1045.64 372.062C1045.64 366.904 1047.35 362.992 1050.77 360.326C1054.19 357.659 1058.94 356.326 1065.03 356.326C1066.65 356.326 1068.25 356.442 1069.81 356.674C1071.38 356.906 1072.83 357.225 1074.16 357.631C1075.55 357.978 1076.8 358.384 1077.9 358.848C1079.06 359.311 1080.01 359.804 1080.77 360.326L1078.68 365.281C1077 364.122 1074.94 363.195 1072.51 362.499C1070.13 361.804 1067.55 361.456 1064.77 361.456C1062.85 361.456 1061.09 361.659 1059.46 362.064C1057.9 362.412 1056.54 363.021 1055.38 363.89C1054.22 364.701 1053.29 365.745 1052.59 367.02C1051.96 368.295 1051.64 369.831 1051.64 371.627C1051.64 373.482 1051.99 375.047 1052.68 376.322C1053.38 377.597 1054.33 378.698 1055.55 379.626C1056.83 380.553 1058.3 381.393 1059.99 382.147C1061.67 382.9 1063.49 383.683 1065.46 384.494C1067.84 385.48 1070.07 386.465 1072.16 387.45C1074.3 388.435 1076.16 389.595 1077.72 390.928C1079.29 392.261 1080.54 393.884 1081.46 395.796C1082.39 397.709 1082.85 400.056 1082.85 402.838C1082.85 408.286 1080.94 412.372 1077.12 415.096C1073.35 417.82 1068.22 419.182 1061.72 419.182C1059.41 419.182 1057.29 419.037 1055.38 418.748C1053.46 418.458 1051.75 418.11 1050.25 417.704C1048.74 417.241 1047.46 416.777 1046.42 416.313C1045.38 415.85 1044.57 415.444 1043.99 415.096L1045.9 409.967C1046.48 410.315 1047.26 410.72 1048.25 411.184C1049.23 411.648 1050.39 412.111 1051.72 412.575C1053.06 412.981 1054.57 413.329 1056.25 413.618C1057.93 413.908 1059.78 414.053 1061.81 414.053Z" fill="#101820"/>
</svg>
