<?xml version="1.0" encoding="UTF-8" standalone="no"?>
<!-- Created with Inkscape (http://www.inkscape.org/) -->

<svg
   width="45.971352mm"
   height="9.6670418mm"
   viewBox="0 0 45.971352 9.6670418"
   version="1.1"
   id="svg3644"
   inkscape:version="1.1 (c68e22c387, 2021-05-23)"
   sodipodi:docname="osnetSVG.svg"
   xmlns:inkscape="http://www.inkscape.org/namespaces/inkscape"
   xmlns:sodipodi="http://sodipodi.sourceforge.net/DTD/sodipodi-0.dtd"
   xmlns="http://www.w3.org/2000/svg"
   xmlns:svg="http://www.w3.org/2000/svg">
  <sodipodi:namedview
     id="namedview3646"
     pagecolor="#ffffff"
     bordercolor="#666666"
     borderopacity="1.0"
     inkscape:pageshadow="2"
     inkscape:pageopacity="0.0"
     inkscape:pagecheckerboard="0"
     inkscape:document-units="mm"
     showgrid="false"
     fit-margin-top="0"
     fit-margin-left="0"
     fit-margin-right="0"
     fit-margin-bottom="0"
     inkscape:zoom="4.323827"
     inkscape:cx="115.75394"
     inkscape:cy="30.644149"
     inkscape:window-width="1920"
     inkscape:window-height="1017"
     inkscape:window-x="-8"
     inkscape:window-y="-8"
     inkscape:window-maximized="1"
     inkscape:current-layer="layer1"
     showguides="true"
     inkscape:guide-bbox="true" />
  <defs
     id="defs3641" />
  <g
     inkscape:label="Capa 1"
     inkscape:groupmode="layer"
     id="layer1"
     transform="translate(138.60109,-118.7434)">
    <path
       id="path12409-0-89"
       style="fill:#009fdb;fill-opacity:1;fill-rule:evenodd;stroke:none;stroke-width:0.263683"
       d="m -131.76456,118.78488 a 0.64102537,0.64102537 0 0 0 -0.51057,0.17777 c -2.52317,2.37691 -2.928,6.25486 -0.95033,9.10177 a 0.64121184,0.64121184 0 1 0 1.05317,-0.73174 c -1.62083,-2.33324 -1.29122,-5.4887 0.77669,-7.43675 a 0.64102537,0.64102537 0 0 0 -0.36896,-1.11105 z m 1.4087,1.53583 a 0.64102537,0.64102537 0 0 0 -0.40102,0.17467 c -1.70465,1.56831 -2.06094,4.13424 -0.84801,6.10763 a 0.64102537,0.64102537 0 1 0 1.09193,-0.67024 c -0.89594,-1.45764 -0.63438,-3.33482 0.62476,-4.49326 a 0.64102537,0.64102537 0 0 0 -0.35656,-1.1157 0.64102537,0.64102537 0 0 0 -0.1111,-0.003 z m 2.89904,0.91829 c -1.54569,0 -2.85719,1.24897 -2.85719,2.82463 0,1.57644 1.3115,2.82515 2.85719,2.82515 0.23795,0 0.47016,-0.0298 0.69298,-0.0858 -0.97286,-0.1251 -1.72702,-0.95749 -1.72702,-1.9637 0,-1.09197 0.88852,-1.98128 1.98127,-1.98128 0.8978,0 1.65752,0.60044 1.90014,1.42059 0.005,-0.0711 0.009,-0.14227 0.009,-0.21498 0,-1.57566 -1.31228,-2.82463 -2.85667,-2.82463 z m 14.09681,0.84336 c -0.0764,0 -0.13797,0.0615 -0.13797,0.13798 v 1.12912 h -0.40204 c -0.0659,0 -0.11886,0.0535 -0.11886,0.11938 v 0.51263 c 0,0.0659 0.0529,0.11885 0.11886,0.11885 h 0.40204 v 2.64274 c 0,0.0764 0.0615,0.13797 0.13797,0.13797 h 0.59222 c 0.0764,0 0.13797,-0.0615 0.13797,-0.13797 v -2.64274 h 0.39998 c 0.0659,0 0.11886,-0.053 0.11886,-0.11885 v -0.51263 c 0,-0.0659 -0.053,-0.11938 -0.11886,-0.11938 h -0.39998 v -1.12912 c 0,-0.0764 -0.0615,-0.13798 -0.13797,-0.13798 z m -2.71197,1.2423 c -0.49143,0 -0.89919,0.17144 -1.22577,0.51263 -0.32475,0.33985 -0.48679,0.76735 -0.48679,1.28312 0,0.5038 0.16384,0.92273 0.48938,1.25833 0.32657,0.33399 0.74905,0.50023 1.26865,0.50023 0.3344,0 0.62195,-0.0599 0.86558,-0.17984 0.2009,-0.10078 0.37874,-0.24585 0.53279,-0.43563 0,0 0.0351,-0.0427 0.0284,-0.10284 -0.007,-0.0602 -0.063,-0.094 -0.063,-0.094 l -0.46354,-0.27905 c -0.0122,-0.006 -0.0352,-0.0103 -0.0667,-0.007 -0.0315,0.004 -0.0518,0.0168 -0.0615,0.0253 -0.21245,0.1862 -0.49508,0.30386 -0.77825,0.30386 -0.25954,0 -0.44076,-0.0704 -0.60875,-0.21084 -0.15167,-0.13108 -0.25031,-0.27912 -0.29559,-0.49196 0,0 -0.008,-0.0286 0.005,-0.0455 0.0127,-0.0166 0.0429,-0.0145 0.0429,-0.0145 h 2.41071 c 0,0 0.0814,0.003 0.12506,-0.0419 0.0434,-0.0448 0.0408,-0.11937 0.0408,-0.11937 0,-0.5595 -0.16254,-1.00891 -0.48886,-1.34876 -0.32736,-0.34119 -0.75034,-0.51263 -1.27072,-0.51263 z m -5.06636,0.032 c -0.0666,0 -0.12041,0.0537 -0.12041,0.12041 v 3.28765 c 0,0.0667 0.0537,0.11989 0.12041,0.11989 h 0.61753 c 0.0667,0 0.11989,-0.0532 0.11989,-0.11989 v -1.25832 c 0,-0.35722 0.013,-0.58997 0.0388,-0.6966 0.0479,-0.20675 0.1339,-0.36759 0.25838,-0.48369 0.12611,-0.11718 0.27715,-0.17622 0.45062,-0.17622 0.13477,0 0.24787,0.0363 0.33745,0.10749 0.0926,0.0698 0.15676,0.17143 0.19275,0.30593 0.0376,0.13477 0.0568,0.40729 0.0568,0.817 v 1.38441 c 0,0.0667 0.0537,0.11989 0.12041,0.11989 h 0.61133 c 0.0667,0 0.12041,-0.0532 0.12041,-0.11989 v -2.14767 c -10e-4,-0.39565 -0.0994,-0.69446 -0.30076,-0.89607 -0.23679,-0.2376 -0.52644,-0.35657 -0.86661,-0.35657 -0.16671,2.7e-4 -0.32836,0.0332 -0.48938,0.0982 -0.15776,0.0639 -0.33508,0.17654 -0.5302,0.34054 v -0.32607 c 0,-0.0667 -0.0532,-0.12041 -0.11989,-0.12041 z m -1.76733,0.005 c -0.31942,2.6e-4 -0.58266,0.0952 -0.78652,0.28422 -0.20307,0.18747 -0.30541,0.41305 -0.30541,0.67799 0,0.4109 0.27055,0.75289 0.81339,1.02629 l 0.28422,0.1416 c 0.24431,0.12295 0.36639,0.24921 0.36639,0.3793 0,0.0693 -0.0336,0.13132 -0.10181,0.18449 -0.0682,0.0537 -0.15635,0.0806 -0.2682,0.0806 -0.10259,0 -0.22123,-0.0346 -0.3545,-0.1049 -0.11279,-0.0611 -0.21315,-0.13908 -0.30127,-0.23255 0,0 -0.0203,-0.0236 -0.0429,-0.0237 -0.0226,-1.2e-4 -0.0481,0.0274 -0.0481,0.0274 l -0.4191,0.45682 c 0,0 -0.0272,0.0256 -0.0269,0.0574 2.7e-4,0.0317 0.0259,0.0599 0.0259,0.0599 0.28533,0.34128 0.65924,0.51108 1.12138,0.51108 0.36727,0 0.65984,-0.099 0.87798,-0.29921 0.22052,-0.19831 0.3297,-0.44744 0.3297,-0.74517 0,-0.22396 -0.0613,-0.41918 -0.18242,-0.5855 -0.12137,-0.16658 -0.34374,-0.33017 -0.66818,-0.4904 l -0.30799,-0.15348 c -0.13432,-0.0658 -0.21779,-0.11803 -0.25321,-0.15452 -0.0323,-0.0394 -0.0486,-0.0812 -0.0486,-0.1266 0,-0.059 0.0256,-0.10897 0.0796,-0.14728 0.0529,-0.0415 0.12676,-0.062 0.22221,-0.062 0.15377,0 0.32311,0.0843 0.50953,0.25166 0,0 0.0224,0.0209 0.061,0.0233 0.0385,0.002 0.0641,-0.0191 0.0641,-0.0191 l 0.42374,-0.42375 c 0,0 0.0164,-0.0143 0.0176,-0.0398 0.002,-0.0255 -0.0139,-0.0434 -0.0139,-0.0434 -0.12695,-0.15675 -0.27794,-0.27822 -0.45527,-0.36483 -0.19118,-0.097 -0.39476,-0.14573 -0.61237,-0.14573 z m -3.55483,0.59117 c -0.51824,0 -0.93896,0.42097 -0.93896,0.93896 0,0.51774 0.42072,0.93897 0.93896,0.93897 0.51749,0 0.93896,-0.42123 0.93896,-0.93897 0,-0.51799 -0.42147,-0.93896 -0.93896,-0.93896 z m 10.42779,0.0904 c 0.21206,0 0.38142,0.0589 0.54105,0.17725 0.14107,0.10204 0.24189,0.23083 0.30128,0.38654 0,0 0.0143,0.0319 -5.3e-4,0.0532 -0.0149,0.0214 -0.0403,0.0196 -0.0403,0.0196 h -1.63711 c 0,0 -0.0236,0.002 -0.0346,-0.0186 -0.0113,-0.0207 -0.001,-0.0398 -0.001,-0.0398 0.0739,-0.18311 0.18308,-0.30441 0.28267,-0.37983 0.17477,-0.13247 0.35723,-0.19843 0.5886,-0.19843 z" />
    <path
       id="rect3757"
       style="fill:#323070;stroke-width:1.30772;stroke-linecap:round;stroke-linejoin:round;paint-order:stroke fill markers"
       d="M 121.32812 11.351562 C 116.92309 11.351562 113.37695 14.897695 113.37695 19.302734 L 113.37695 23.677734 C 113.37695 28.082812 116.92309 31.628906 121.32812 31.628906 L 156.00977 31.628906 L 156.00977 34.548828 L 159.85352 31.628906 L 161.27344 31.628906 C 165.67848 31.628906 169.22461 28.082812 169.22461 23.677734 L 169.22461 19.302734 C 169.22461 14.897695 165.67848 11.351562 161.27344 11.351562 L 121.32812 11.351562 z "
       transform="matrix(0.26458333,0,0,0.26458333,-138.60109,118.7434)" />
    <path
       id="text1266-6"
       style="font-style:italic;font-variant:normal;font-weight:900;font-stretch:normal;font-size:5.06696px;line-height:1.25;font-family:Montserrat;-inkscape-font-specification:'Montserrat Heavy Italic';letter-spacing:0px;word-spacing:0px;fill:#ffffff;fill-opacity:1;stroke:none;stroke-width:0.120353"
       d="m -96.731336,122.56533 c -0.34138,0 -0.637625,0.0545 -0.888181,0.163 -0.250553,0.10525 -0.443206,0.25634 -0.577879,0.45367 -0.131542,0.19404 -0.197374,0.42117 -0.197374,0.68098 0,0.2072 0.05357,0.3745 0.16006,0.50276 0.109617,0.12498 0.236438,0.21885 0.380507,0.28133 0.144069,0.0592 0.325751,0.11854 0.544985,0.17774 0.165992,0.0427 0.286195,0.0821 0.36136,0.11832 0.0783,0.0362 0.117835,0.0837 0.117835,0.14288 0,0.0625 -0.03776,0.1121 -0.112925,0.14827 -0.07517,0.0362 -0.183109,0.054 -0.324045,0.054 -0.385228,0 -0.75472,-0.10683 -1.108629,-0.32061 l -0.427641,0.85872 c 0.162859,0.10524 0.369552,0.19052 0.620106,0.25629 0.250553,0.0625 0.518233,0.0938 0.803239,0.0938 0.338247,0 0.632715,-0.0528 0.883268,-0.1581 0.250554,-0.10853 0.443209,-0.25962 0.577881,-0.45366 0.134673,-0.19404 0.201791,-0.41955 0.201791,-0.67607 0,-0.20391 -0.05308,-0.36797 -0.159566,-0.49295 -0.106485,-0.12497 -0.233306,-0.21722 -0.380507,-0.27642 -0.144069,-0.0592 -0.322688,-0.11529 -0.535657,-0.16791 -0.175389,-0.0428 -0.30221,-0.0821 -0.380508,-0.11833 -0.07517,-0.0362 -0.112435,-0.0853 -0.112435,-0.14778 0,-0.0625 0.04211,-0.11696 0.126674,-0.16301 0.08456,-0.046 0.203475,-0.0687 0.35694,-0.0687 0.162859,0 0.320819,0.0211 0.474285,0.0638 0.156595,0.0428 0.299231,0.10696 0.427641,0.19247 l 0.399655,-0.84841 c -0.153463,-0.0954 -0.336923,-0.16768 -0.549895,-0.21701 -0.209838,-0.0526 -0.436696,-0.079 -0.680985,-0.079 z m -9.555904,0.079 -0.65742,3.45304 h 1.08064 l 0.30539,-1.60795 0.94415,1.60795 h 0.91126 l 0.65791,-3.45304 h -1.08065 l -0.30538,1.60795 -0.94415,-1.60795 z m 3.77709,0 -0.65742,3.45304 h 1.00994 l 0.29606,-1.55394 0.50718,1.24315 h 0.48853 l 0.925492,-1.26279 -0.291152,1.57358 h 1.009945 l 0.648582,-3.45304 h -0.944151 l -1.376706,1.83527 -0.71388,-1.83527 z" />
  </g>
</svg>
